<?xml version="1.0" encoding="UTF-8"?>
<svg version="1.1" xmlns="http://www.w3.org/2000/svg" width="500" height="500">
<path d="M0 0 C165 0 330 0 500 0 C500 165 500 330 500 500 C335 500 170 500 0 500 C0 335 0 170 0 0 Z " fill="#0BBCEF" transform="translate(0,0)"/>
<path d="M0 0 C0.33 0 0.66 0 1 0 C1.20753906 0.99257812 1.41507812 1.98515625 1.62890625 3.0078125 C6.21520016 23.7076961 16.51750906 39.66568798 34.1875 51.6875 C51.94453032 62.56523326 72.45808768 64.42806594 92.39501953 59.78369141 C98.51569282 58.2518566 104.39933172 56.23558113 110.27734375 53.953125 C113 53 113 53 116 53 C117.5078125 54.8359375 117.5078125 54.8359375 119.125 57.375 C136.38173644 83.04258277 164.86493888 98.75557175 194.69140625 105.03515625 C210.62244298 108.05183144 226.9242764 107.67020505 243 106 C242.7834375 106.65742188 242.566875 107.31484375 242.34375 107.9921875 C237.43066259 124.7785695 239.043626 142.44507835 247 158 C256.0201548 171.97023975 268.21799511 181.02975756 284 186 C285.60875 186.19335938 285.60875 186.19335938 287.25 186.390625 C290 187 290 187 291.36328125 188.71484375 C291.67652344 189.44832031 291.98976563 190.18179688 292.3125 190.9375 C299.08817259 204.51042375 311.29903723 212.48313978 325 218 C325.99 218.33 326.98 218.66 328 219 C328.80859375 221.109375 328.80859375 221.109375 329.4375 223.75 C330.58496321 228.02246939 331.99414417 230.68319356 335 234 C335 234.66 335 235.32 335 236 C335.53625 236.268125 336.0725 236.53625 336.625 236.8125 C338.35014475 237.67507237 340.04793953 238.59303168 341.7265625 239.54296875 C348.05938975 242.36175701 355.42308056 242.13471465 361.9921875 240.05078125 C366.70059744 237.83629171 370.28750695 235.55698833 373 231 C373.5775 230.030625 374.155 229.06125 374.75 228.0625 C377.26696189 221.67221342 377.14433883 213.81446276 375.19140625 207.3046875 C371.94198086 200.67091248 366.45038832 197.22519416 360 194 C351.84553254 193.29442185 344.81399184 192.88269327 338.02734375 198.00390625 C335.03475514 199.47425326 333.17517465 198.83978171 330 198 C327.18359375 196.80078125 327.18359375 196.80078125 324.4375 195.3125 C323.52871094 194.83425781 322.61992187 194.35601562 321.68359375 193.86328125 C318.41020321 191.59049044 316.43257199 189.14518801 314 186 C315.0621875 185.49210938 316.124375 184.98421875 317.21875 184.4609375 C328.21480343 179.19371942 328.21480343 179.19371942 338 172 C338.89912109 171.22076172 338.89912109 171.22076172 339.81640625 170.42578125 C349.79374462 161.18112 356.35915127 146.90530703 357.15820312 133.30786133 C357.19547772 130.51496425 357.17552795 127.73014108 357.125 124.9375 C357.11146484 123.49600586 357.11146484 123.49600586 357.09765625 122.02539062 C357.07435208 119.68332195 357.04164058 117.34180208 357 115 C357.75639771 115.57790283 357.75639771 115.57790283 358.52807617 116.16748047 C377.5929635 130.61906388 395.40786593 137.26800263 419.4375 134.375 C435.58115309 131.5434701 450.32127451 123.4355992 460 110 C465.44089451 101.0843524 468.81157494 91.59459043 469.25 81.125 C469.47438405 78.62951383 469.63665223 77.37907077 471.39355469 75.54614258 C471.98040039 75.10423584 472.56724609 74.6623291 473.171875 74.20703125 C488.1656952 62.06409502 496.22392073 43.63938935 499 25 C499.33 25 499.66 25 500 25 C500 105.85 500 186.7 500 270 C335 270 170 270 0 270 C0 180.9 0 91.8 0 0 Z " fill="transparent" transform="translate(0,230)"/>
<path d="M0 0 C9.21643336 8.397582 14.48094675 18.57330011 15.25146484 31.04736328 C15.33275214 33.4285116 15.36366134 35.8049937 15.375 38.1875 C15.38474854 39.05955078 15.39449707 39.93160156 15.40454102 40.83007812 C15.38439637 46.28976792 14.76954911 51.25720676 13.59008789 56.58032227 C11.84474402 64.0743116 11.84474402 64.0743116 13.6484375 71.328125 C15.91009609 74.29163222 15.91009609 74.29163222 18.5 77.05078125 C21.408636 80.31866842 23.41323508 83.58505559 25.4375 87.4375 C25.7679834 88.0660791 26.0984668 88.6946582 26.43896484 89.34228516 C34.90563124 106.07310735 36.85024252 125.04796837 31.125 143 C27.19884936 153.71971467 21.85884441 162.56674705 14.125 171 C13.37347656 171.88042969 12.62195313 172.76085937 11.84765625 173.66796875 C7.88103333 178.2945 7.88103333 178.2945 6.125 180 C5.465 180 4.805 180 4.125 180 C4.2075 181.175625 4.29 182.35125 4.375 183.5625 C4.30925484 197.50047327 -1.60111015 210.64403771 -11 220.75 C-25.55168345 234.3860163 -43.57989948 239.67891699 -63.20703125 239.30859375 C-80.49169112 237.85439979 -95.0563398 230.53679418 -107.875 219 C-107.82859375 220.26972656 -107.7821875 221.53945313 -107.734375 222.84765625 C-107.2737026 240.86838708 -110.06562789 256.31607473 -122.3125 270.3125 C-123.81650385 271.89120602 -125.33592385 273.45546613 -126.875 275 C-127.41640625 275.56460937 -127.9578125 276.12921875 -128.515625 276.7109375 C-133.19668439 281.17922146 -138.9815375 283.73977501 -144.765625 286.484375 C-147.93548081 287.943506 -147.93548081 287.943506 -150.875 290 C-145.25681502 295.25178162 -138.71959433 300.90500795 -130.6875 301.0625 C-127.72548428 300.07653009 -127.72548428 300.07653009 -124.9375 297.9375 C-119.2121822 294.48958639 -112.26562629 295.13098178 -105.875 296 C-98.66741196 298.58492032 -93.67382015 303.42565812 -89.875 310 C-87.47641793 317.1957462 -87.77298485 325.69474981 -91 332.5625 C-94.25352648 338.13736279 -98.48176007 342.13702934 -104.63671875 344.484375 C-112.040412 346.18993784 -119.61368481 346.24491069 -126.375 342.5625 C-131.70854775 338.8281379 -135.86984873 334.06782697 -137.45703125 327.64453125 C-137.75 325.4375 -137.75 325.4375 -137.875 322 C-138.72578125 321.9071875 -139.5765625 321.814375 -140.453125 321.71875 C-153.24479318 319.03191559 -165.39314858 308.24454479 -172.7578125 297.86328125 C-174.26105231 295.35612954 -175.16789409 292.82842363 -175.875 290 C-177.133125 289.938125 -178.39125 289.87625 -179.6875 289.8125 C-194.13905215 288.1589525 -206.67169013 277.60450583 -215.875 267 C-225.969434 253.26637091 -228.082996 237.6062166 -226.875 221 C-226.15697259 217.13434082 -225.1537012 213.72954515 -223.875 210 C-230.805 210 -237.735 210 -244.875 210 C-242.75089134 205.75178268 -240.12483146 202.97819469 -236.80078125 199.6953125 C-235.89769478 198.79291336 -235.89769478 198.79291336 -234.97636414 197.87228394 C-233.70185802 196.60079512 -232.42492611 195.33173386 -231.14575195 194.06494141 C-229.20667998 192.14400064 -227.27560515 190.21530491 -225.34570312 188.28515625 C-224.10203074 187.04640472 -222.8579042 185.80810895 -221.61328125 184.5703125 C-221.04321854 184.00136261 -220.47315582 183.43241272 -219.88581848 182.84622192 C-208.91314347 172 -208.91314347 172 -205.875 172 C-205.875 171.34 -205.875 170.68 -205.875 170 C-205.03195312 169.68546875 -204.18890625 169.3709375 -203.3203125 169.046875 C-202.22460938 168.61890625 -201.12890625 168.1909375 -200 167.75 C-198.36417969 167.12351562 -198.36417969 167.12351562 -196.6953125 166.484375 C-193.87993363 165.21588641 -193.87993363 165.21588641 -192.3203125 163.23828125 C-191.23641917 157.7902911 -195.98185082 151.53068871 -198.875 147 C-206.55104997 136.31385757 -214.55741459 132.33180589 -226.875 129 C-225.9159375 127.824375 -225.9159375 127.824375 -224.9375 126.625 C-221.55571544 122.32091057 -221.40566158 119.23540382 -221.4765625 113.83984375 C-222.01509301 110.00149394 -223.22359627 107.93082955 -225.984375 105.25390625 C-229.53975983 102.89589276 -232.67962482 102.55214205 -236.875 103 C-246.92133493 105.37748763 -255.69996301 110.36123439 -261.59765625 118.921875 C-264.75408198 124.05709973 -267.13899771 129.21332571 -268.875 135 C-284.85270185 139.10436378 -301.26186617 137.80020817 -316.875 133 C-317.85984375 132.69964844 -318.8446875 132.39929688 -319.859375 132.08984375 C-322.14741605 131.24822356 -323.95608594 130.49899902 -325.875 129 C-327.375 125.5 -327.375 125.5 -327.875 122 C-328.04773438 121.40703125 -328.22046875 120.8140625 -328.3984375 120.203125 C-330.06520015 112.49776322 -329.1130302 103.73768877 -327.875 96 C-324.36664709 97.33397449 -321.02375017 98.89608964 -317.6628418 100.56420898 C-304.61726218 106.94630301 -289.87908783 109.45943898 -275.484375 106.2421875 C-265.78026181 102.87491325 -258.91838024 97.57953045 -254 88.5625 C-251.80656741 82.11047313 -252.65496895 74.7150218 -252.875 68 C-246.78050356 67.64543544 -243.29496584 68.3271212 -237.8125 71.3125 C-233.22164146 73.77576156 -228.68324291 76.00932618 -223.875 78 C-223.56819556 86.16440715 -223.96904586 93.68043889 -227.875 101 C-227.02679688 101.01417969 -226.17859375 101.02835937 -225.3046875 101.04296875 C-215.1287095 101.45671731 -205.52959705 103.23026863 -196.875 109 C-196.875 109.66 -196.875 110.32 -196.875 111 C-196.32263672 110.65332275 -195.77027344 110.30664551 -195.20117188 109.94946289 C-169.59631176 93.90930145 -143.66791676 80.38441536 -115.59130859 69.09716797 C-113.05914463 68.07437947 -110.53905795 67.02608583 -108.01953125 65.97265625 C-106.59704797 65.39672093 -105.17392084 64.82237193 -103.75 64.25 C-102.55117188 63.76015625 -101.35234375 63.2703125 -100.1171875 62.765625 C-96.25899926 61.85453477 -94.46104927 62.43554791 -90.875 64 C-89.885 64.33 -88.895 64.66 -87.875 65 C-85.28468804 63.68405023 -82.85244657 62.31580217 -80.375 60.8125 C-74.06967684 57.12516406 -67.9303532 54.02631424 -60.875 52 C-59.71484375 51.64421875 -58.5546875 51.2884375 -57.359375 50.921875 C-51.67472763 49.53201335 -45.94537155 49.67073626 -40.125 49.6875 C-39.0215625 49.67138672 -37.918125 49.65527344 -36.78125 49.63867188 C-29.07920255 49.63415189 -22.24916582 50.79625506 -14.875 53 C-14.75771874 49.33360752 -14.68739109 45.6677048 -14.625 42 C-14.57472656 40.45505859 -14.57472656 40.45505859 -14.5234375 38.87890625 C-14.44146182 32.44381517 -14.86564313 27.24274521 -18.875 22 C-20.95322346 20.29511393 -20.95322346 20.29511393 -23.3125 19.5625 C-24.09367187 19.26988281 -24.87484375 18.97726563 -25.6796875 18.67578125 C-28.06402763 17.94181178 -30.39775449 17.31964458 -32.875 17 C-33.060625 17.804375 -33.24625 18.60875 -33.4375 19.4375 C-37.96562988 30.6593871 -50.05559074 42.82305177 -60.91479492 47.96606445 C-81.52099007 56.6771382 -104.0122977 56.80483897 -124.91015625 48.84375 C-126.9316573 47.96891183 -128.91205098 46.9993195 -130.875 46 C-130.43800781 45.23429687 -130.43800781 45.23429687 -129.9921875 44.453125 C-126.39660222 38.07604922 -123.11419826 31.56388856 -119.875 25 C-119.20887386 23.66639654 -118.54230635 22.3330133 -117.875 21 C-117.29121582 21.12117188 -116.70743164 21.24234375 -116.10595703 21.3671875 C-113.40593977 21.92158394 -110.7030988 22.46083744 -108 23 C-106.62328125 23.28617188 -106.62328125 23.28617188 -105.21875 23.578125 C-95.42311092 25.50965947 -87.18927403 25.87344085 -77.875 22 C-76.864375 21.5875 -75.85375 21.175 -74.8125 20.75 C-67.68070682 16.50127215 -62.80801328 11.27985632 -58.875 4 C-58.545 4.66 -58.215 5.32 -57.875 6 C-57.05 5.74605469 -56.225 5.49210938 -55.375 5.23046875 C-48.19787748 3.09175032 -41.09368815 1.37982366 -33.71899414 0.0793457 C-29.53316655 -0.66562861 -25.42849039 -1.56131709 -21.3125 -2.625 C-12.54059219 -4.8714642 -7.42895799 -6.04583146 0 0 Z " fill="#197DE1" transform="translate(465.875,127)"/>
<path d="M0 0 C165 0 330 0 500 0 C500 79.2 500 158.4 500 240 C499.67 240 499.34 240 499 240 C498.8040625 239.1028125 498.608125 238.205625 498.40625 237.28125 C494.91745404 222.7245496 488.52951451 210.5656753 479.78515625 198.4765625 C478 196 478 196 477 194 C477.30252245 192.14255448 477.61481227 190.28609305 477.97998047 188.43994141 C480.85498504 173.8930933 482.1745166 158.1736759 477 144 C476.61714844 142.93652344 476.61714844 142.93652344 476.2265625 141.8515625 C472.3014139 132.74089649 465.43740217 126.48117321 456.75 122.125 C449.24805009 118.2922465 447.52957372 113.74932903 445 106 C436.67215117 89.04329575 421.49116271 76.63657302 404 70 C398.85586005 68.42224735 393.66620565 67.00379676 388.42529297 65.78491211 C380.8528991 63.85460824 377.1352901 60.74453774 372 55 C352.76587205 37.75225372 329.48294277 28.36050091 303.6875 28.5625 C302.66544464 28.56756058 302.66544464 28.56756058 301.6227417 28.57272339 C291.17439432 28.64760602 281.84155014 29.33247635 272 33 C271.32404785 33.24137695 270.6480957 33.48275391 269.95166016 33.73144531 C260.52019016 37.13576706 251.8632835 41.47583051 243.3671875 46.7890625 C242.80870117 47.13743164 242.25021484 47.48580078 241.67480469 47.84472656 C239.94588345 48.98558028 239.94588345 48.98558028 238.33300781 50.49121094 C236.57949214 52.00703006 235.14693188 53.11631424 233 54 C229.73769717 53.62248709 226.98695742 52.31369385 224 51 C222.3983883 50.45711392 220.79006556 49.93364333 219.17578125 49.4296875 C218.37462891 49.17316406 217.57347656 48.91664062 216.74804688 48.65234375 C215.94431641 48.39582031 215.14058594 48.13929687 214.3125 47.875 C213.08950195 47.47861328 213.08950195 47.47861328 211.84179688 47.07421875 C211.04451172 46.82027344 210.24722656 46.56632812 209.42578125 46.3046875 C208.71848877 46.07765137 208.01119629 45.85061523 207.2824707 45.61669922 C186.22675396 39.92766932 161.30594131 43.11158622 142.29345703 53.63916016 C131.55351874 60.02451501 120.00436158 69.26321109 114.7109375 80.8125 C113.36681265 83.71514999 112.31079093 85.77496107 110 88 C106.24839108 88.81615531 102.7857504 88.87544589 98.94921875 88.88671875 C83.05994676 89.34249411 68.89809002 99.10190998 58 110 C49.14728767 120.25638564 42.68772034 133.07277402 43.02954102 146.74853516 C43.1709178 156.67423256 43.1709178 156.67423256 39.84375 160.44140625 C36.96995707 162.18101967 34.04266225 163.58009095 31 165 C14.42926249 176.53168283 5.1414163 191.54624186 1 211 C0.67 211 0.34 211 0 211 C0 141.37 0 71.74 0 0 Z " fill="transparent" transform="translate(0,0)"/>
<path d="M0 0 C17.61916696 -0.61145 31.1965238 -0.30120513 45 12 C49.80301738 17.11548134 53.10814165 22.63791162 56 29 C56.66 29 57.32 29 58 29 C59.1149548 26.88005854 60.21887421 24.75594393 61.3125 22.625 C61.63935791 21.99174805 61.96621582 21.35849609 62.30297852 20.70605469 C64.57039243 16.1906211 66.01904532 11.91049084 66.80859375 6.890625 C68 5 68 5 71.47265625 3.8046875 C76.27506022 2.8374055 81.12656405 2.33165068 86 1.875 C86.87011719 1.78863281 87.74023438 1.70226562 88.63671875 1.61328125 C90.75729499 1.40355393 92.87858079 1.20102158 95 1 C95.94769455 21.5070571 89.55473606 37.41333956 76 53 C74.90365234 54.29550781 74.90365234 54.29550781 73.78515625 55.6171875 C69.76304714 60.28661616 69.76304714 60.28661616 68 62 C67.34 62 66.68 62 66 62 C66.0825 63.175625 66.165 64.35125 66.25 65.5625 C66.18425484 79.50047327 60.27388985 92.64403771 50.875 102.75 C36.32331655 116.3860163 18.29510052 121.67891699 -1.33203125 121.30859375 C-18.61669112 119.85439979 -33.1813398 112.53679418 -46 101 C-45.95359375 102.26972656 -45.9071875 103.53945313 -45.859375 104.84765625 C-45.3987026 122.86838708 -48.19062789 138.31607473 -60.4375 152.3125 C-61.94150385 153.89120602 -63.46092385 155.45546613 -65 157 C-65.54140625 157.56460938 -66.0828125 158.12921875 -66.640625 158.7109375 C-71.32168439 163.17922146 -77.1065375 165.73977501 -82.890625 168.484375 C-86.06048081 169.943506 -86.06048081 169.943506 -89 172 C-83.38181502 177.25178162 -76.84459433 182.90500795 -68.8125 183.0625 C-65.85048428 182.07653009 -65.85048428 182.07653009 -63.0625 179.9375 C-57.3371822 176.48958639 -50.39062629 177.13098178 -44 178 C-36.79241196 180.58492032 -31.79882015 185.42565812 -28 192 C-25.60141793 199.1957462 -25.89798485 207.69474981 -29.125 214.5625 C-32.37852648 220.13736279 -36.60676007 224.13702934 -42.76171875 226.484375 C-50.165412 228.18993784 -57.73868481 228.24491069 -64.5 224.5625 C-69.83354775 220.8281379 -73.99484873 216.06782697 -75.58203125 209.64453125 C-75.875 207.4375 -75.875 207.4375 -76 204 C-76.85078125 203.9071875 -77.7015625 203.814375 -78.578125 203.71875 C-91.36979318 201.03191559 -103.51814858 190.24454479 -110.8828125 179.86328125 C-112.38605231 177.35612954 -113.29289409 174.82842363 -114 172 C-115.27875 171.9175 -116.5575 171.835 -117.875 171.75 C-123.34050801 171.16782347 -128.01815378 169.23611052 -133 167 C-125.9285857 151.37624693 -110.99880947 138.8451974 -99 127 C-97.93723686 130.76440006 -98.08577931 133.84199237 -98.4375 137.75 C-98.53933594 138.92046875 -98.64117187 140.0909375 -98.74609375 141.296875 C-98.82988281 142.18890625 -98.91367187 143.0809375 -99 144 C-89.27625453 140.79196102 -82.13358932 136.08250419 -77 127 C-74.88149541 122.74053317 -74.95174832 119.40166954 -75.0625 114.6875 C-74.91997974 110.83899027 -74.62463024 107.82456707 -72.23046875 104.6640625 C-69.90304794 102.92674366 -67.54662458 101.44880785 -64.98779297 100.07666016 C-62.67388433 98.82336402 -60.42081405 97.48365205 -58.16015625 96.13671875 C-49.89704438 91.2595757 -41.50768633 86.62823326 -32.9375 82.3125 C-32.28950439 81.98572266 -31.64150879 81.65894531 -30.97387695 81.32226562 C-28.02839537 79.87261969 -25.23887226 78.60577411 -22 78 C-22.495 79.98 -22.495 79.98 -23 82 C-13.16975098 89.44715835 -2.4691515 93.68274649 10 92 C15.86887425 90.39567733 20.40784889 88.01813222 25 84 C25.66 84 26.32 84 27 84 C27.27714844 83.4328125 27.55429687 82.865625 27.83984375 82.28125 C29.4088548 79.19605656 31.14924876 76.21613865 32.87890625 73.21875 C36.30939218 66.42949562 35.80681468 58.13066879 33.875 50.9375 C31.34919154 43.45538814 27.22475516 35.97980413 21 31 C17.3003051 29.27921167 13.81131429 28.83301749 9.79296875 28.453125 C8.44561646 28.32405762 8.44561646 28.32405762 7.07104492 28.19238281 C6.3876001 28.12889648 5.70415527 28.06541016 5 28 C4.95512451 27.43603516 4.91024902 26.87207031 4.86401367 26.29101562 C4.65042777 23.69287478 4.41907848 21.09659654 4.1875 18.5 C4.11724609 17.613125 4.04699219 16.72625 3.97460938 15.8125 C3.44467641 10.04682939 2.27273166 5.33002274 0 0 Z " fill="#2744D4" transform="translate(404,245)"/>
<path d="M0 0 C10.32973243 9.3087705 18.03402288 22.22869351 19.28515625 36.1796875 C19.7574698 47.2487795 16.61899121 56.17467838 10 65 C7 64 7 64 5.60546875 61.7421875 C4.90357422 60.32292969 4.90357422 60.32292969 4.1875 58.875 C-1.47427411 48.18667521 -8.97797772 41.23440592 -20.6640625 37.30859375 C-26.19458302 35.73775219 -31.41197235 35.65603365 -37.125 35.8125 C-38.08148438 35.82603516 -39.03796875 35.83957031 -40.0234375 35.85351562 C-42.3495811 35.88840778 -44.6744653 35.93741661 -47 36 C-46.51917969 37.07894531 -46.03835938 38.15789062 -45.54296875 39.26953125 C-42.2112796 46.74573452 -42.87974048 54.98269874 -43 63 C-42.05640625 62.94779297 -42.05640625 62.94779297 -41.09375 62.89453125 C-35.3028603 62.71138564 -29.88974722 62.57324944 -25 66 C-16.24621742 75.57144359 -11.57953207 86.15997804 -11.71875 99.08984375 C-12.17938262 103.85611181 -13.81240075 107.77691933 -16 112 C-16.32742188 112.63808594 -16.65484375 113.27617187 -16.9921875 113.93359375 C-21.44264082 121.22648989 -29.95276577 125.79198125 -38 128 C-49.68386019 129.40729969 -59.6928217 125.96944435 -69.35546875 119.5625 C-71.25850366 117.75439082 -71.62992897 116.56287996 -72 114 C-89.02478571 122.30364208 -105.41867908 131.19878933 -121 142 C-123.75123649 140.62438176 -123.76115225 139.2461281 -124.75 136.375 C-127.60788635 128.96566502 -131.94698287 123.79777845 -139 120 C-145.25226561 117.61665772 -151.35134987 116.53618146 -158 116 C-154.67782218 112.50848145 -151.36382729 109.71578848 -147.33203125 107.08203125 C-146.27435547 106.38529297 -145.21667969 105.68855469 -144.12695312 104.97070312 C-143.03318359 104.25849609 -141.93941406 103.54628906 -140.8125 102.8125 C-138.62940886 101.38466779 -136.44917768 99.95263212 -134.26953125 98.51953125 C-133.30635986 97.89151611 -132.34318848 97.26350098 -131.35083008 96.61645508 C-128.94778642 95.06913014 -128.94778642 95.06913014 -127 93 C-127.72445313 92.57589844 -128.44890625 92.15179688 -129.1953125 91.71484375 C-130.16210938 91.12832031 -131.12890625 90.54179687 -132.125 89.9375 C-133.07632812 89.36902344 -134.02765625 88.80054688 -135.0078125 88.21484375 C-145.43653573 80.49541024 -153.06544057 65.86741154 -155.640625 53.3046875 C-156.75696738 43.0391913 -156.8543223 32.96169854 -154 23 C-153.34 23 -152.68 23 -152 23 C-151.64808594 23.95519531 -151.29617188 24.91039062 -150.93359375 25.89453125 C-144.85715221 41.97935228 -136.87873936 55.12236726 -121 63 C-118.04219851 64.21157043 -115.08646778 65.17560144 -112 66 C-110.84757812 66.35191406 -109.69515625 66.70382812 -108.5078125 67.06640625 C-102.8906938 68.45533325 -97.25185024 68.25216577 -91.5 68.1875 C-89.86611328 68.1865332 -89.86611328 68.1865332 -88.19921875 68.18554688 C-82.37736013 68.15386808 -76.75682886 67.87330535 -71 67 C-71.2165625 65.93523437 -71.433125 64.87046875 -71.65625 63.7734375 C-76.16865318 40.69014279 -76.16865318 40.69014279 -73.015625 33.87109375 C-70.36273447 30.47310125 -67.0952376 28.32761897 -62.8515625 27.6640625 C-57.21611325 27.56519497 -54.36195221 28.40138943 -50 32 C-49.67 32.33 -49.34 32.66 -49 33 C-50.09485058 26.06594635 -52.50041062 20.41763162 -55.69946289 14.23022461 C-56.94217843 11.74446983 -57.95982144 9.57153998 -58.15625 6.77734375 C-56.20006894 3.77037624 -53.00036404 2.74079578 -49.8125 1.375 C-48.8215332 0.92640625 -48.8215332 0.92640625 -47.81054688 0.46875 C-45.88670818 -0.38966568 -43.94938132 -1.20156397 -42 -2 C-41.06542969 -2.391875 -40.13085938 -2.78375 -39.16796875 -3.1875 C-27.30943208 -6.22890028 -11.04692634 -5.42247158 0 0 Z " fill="#1F63DB" transform="translate(452,210)"/>
<path d="M0 0 C9.21643336 8.397582 14.48094675 18.57330011 15.25146484 31.04736328 C15.33275214 33.4285116 15.36366134 35.8049937 15.375 38.1875 C15.38474854 39.05955078 15.39449707 39.93160156 15.40454102 40.83007812 C15.38439637 46.28976792 14.76954911 51.25720676 13.59008789 56.58032227 C11.84474402 64.0743116 11.84474402 64.0743116 13.6484375 71.328125 C15.91009609 74.29163222 15.91009609 74.29163222 18.5 77.05078125 C21.408636 80.31866842 23.41323508 83.58505559 25.4375 87.4375 C25.7679834 88.0660791 26.0984668 88.6946582 26.43896484 89.34228516 C29.46156725 95.31519362 31.52314363 101.50207416 33.125 108 C33.3209375 108.78503906 33.516875 109.57007813 33.71875 110.37890625 C34.25850981 113.86139501 34.23120116 117.29959925 34.1875 120.8125 C34.18298828 121.50537109 34.17847656 122.19824219 34.17382812 122.91210938 C34.16213156 124.60811068 34.14419924 126.30406703 34.125 128 C33.795 128 33.465 128 33.125 128 C33.125 125.03 33.125 122.06 33.125 119 C31.84625 119.20496094 30.5675 119.40992188 29.25 119.62109375 C27.54167778 119.89329894 25.83334382 120.16543043 24.125 120.4375 C23.28582031 120.57220703 22.44664062 120.70691406 21.58203125 120.84570312 C20.75058594 120.97783203 19.91914063 121.10996094 19.0625 121.24609375 C18.2375 121.37741699 17.4125 121.50874023 16.5625 121.64404297 C14.23189576 121.98438962 11.90538505 122.23470699 9.5625 122.47265625 C7.8609375 122.73369141 7.8609375 122.73369141 6.125 123 C5.795 123.66 5.465 124.32 5.125 125 C5.02703125 124.18917969 4.9290625 123.37835938 4.828125 122.54296875 C3.13249089 109.98650579 -0.52432266 100.34897994 -7.875 90 C-8.49503906 89.11570312 -9.11507812 88.23140625 -9.75390625 87.3203125 C-12.17461109 84.67224864 -13.92843019 83.85768443 -17.3125 82.75 C-18.70275391 82.27820313 -18.70275391 82.27820313 -20.12109375 81.796875 C-34.10999978 77.74902134 -49.92365509 78.28519636 -62.875 85 C-63.69613281 85.38027344 -64.51726562 85.76054687 -65.36328125 86.15234375 C-68.24563917 87.50904863 -70.60926661 88.73426661 -72.875 91 C-74.27845903 91.95715906 -75.69712915 92.89215467 -77.125 93.8125 C-80.94695213 96.32547983 -84.42937097 98.99611828 -87.875 102 C-91.42157689 100.46014676 -93.92722345 98.30119189 -96.8125 95.75 C-102.72989184 90.80018169 -108.7432151 87.89126415 -115.875 85 C-115.40191406 85.31710938 -114.92882812 85.63421875 -114.44140625 85.9609375 C-105.75256089 92.09224748 -99.40482473 99.42443926 -94.375 108.75 C-94.03662109 109.37575928 -93.69824219 110.00151855 -93.34960938 110.64624023 C-91.41623599 114.41341627 -90.33941637 117.79445178 -89.875 122 C-101.39806939 123.70712139 -116.72706654 125.84305092 -126.875 119 C-136.61659372 110.99110082 -139.76528571 97.92074336 -141.875 86 C-141.875 85.01 -141.875 84.02 -141.875 83 C-142.865 82.67 -143.855 82.34 -144.875 82 C-134.1637571 76.80667011 -123.27493902 72.2408026 -112.18554688 67.91796875 C-110.08174757 67.08213978 -108.00033778 66.20909179 -105.921875 65.3125 C-104.79265625 64.838125 -103.6634375 64.36375 -102.5 63.875 C-101.54351562 63.45992188 -100.58703125 63.04484375 -99.6015625 62.6171875 C-96.0849845 61.82117128 -94.16175774 62.63278121 -90.875 64 C-89.885 64.33 -88.895 64.66 -87.875 65 C-85.28468804 63.68405023 -82.85244657 62.31580217 -80.375 60.8125 C-74.06967684 57.12516406 -67.9303532 54.02631424 -60.875 52 C-59.71484375 51.64421875 -58.5546875 51.2884375 -57.359375 50.921875 C-51.67472763 49.53201335 -45.94537155 49.67073626 -40.125 49.6875 C-39.0215625 49.67138672 -37.918125 49.65527344 -36.78125 49.63867188 C-29.07920255 49.63415189 -22.24916582 50.79625506 -14.875 53 C-14.75771874 49.33360752 -14.68739109 45.6677048 -14.625 42 C-14.57472656 40.45505859 -14.57472656 40.45505859 -14.5234375 38.87890625 C-14.44146182 32.44381517 -14.86564313 27.24274521 -18.875 22 C-20.95322346 20.29511393 -20.95322346 20.29511393 -23.3125 19.5625 C-24.09367187 19.26988281 -24.87484375 18.97726563 -25.6796875 18.67578125 C-28.06402763 17.94181178 -30.39775449 17.31964458 -32.875 17 C-33.1534375 18.2065625 -33.1534375 18.2065625 -33.4375 19.4375 C-37.96562988 30.6593871 -50.05559074 42.82305177 -60.91479492 47.96606445 C-81.52099007 56.6771382 -104.0122977 56.80483897 -124.91015625 48.84375 C-126.9316573 47.96891183 -128.91205098 46.9993195 -130.875 46 C-130.58367187 45.48953125 -130.29234375 44.9790625 -129.9921875 44.453125 C-126.39660222 38.07604922 -123.11419826 31.56388856 -119.875 25 C-119.20887386 23.66639654 -118.54230635 22.3330133 -117.875 21 C-117.29121582 21.12117188 -116.70743164 21.24234375 -116.10595703 21.3671875 C-113.40593977 21.92158394 -110.7030988 22.46083744 -108 23 C-107.0821875 23.19078125 -106.164375 23.3815625 -105.21875 23.578125 C-95.42311092 25.50965947 -87.18927403 25.87344085 -77.875 22 C-76.3590625 21.38125 -76.3590625 21.38125 -74.8125 20.75 C-67.68070682 16.50127215 -62.80801328 11.27985632 -58.875 4 C-58.38 4.99 -58.38 4.99 -57.875 6 C-57.05 5.74605469 -56.225 5.49210938 -55.375 5.23046875 C-48.19787748 3.09175032 -41.09368815 1.37982366 -33.71899414 0.0793457 C-29.53316655 -0.66562861 -25.42849039 -1.56131709 -21.3125 -2.625 C-12.54059219 -4.8714642 -7.42895799 -6.04583146 0 0 Z " fill="#1591E5" transform="translate(465.875,127)"/>
<path d="M0 0 C5.78762733 0.40614929 10.50177682 1.11672379 15 5 C20.36483316 11.28271022 19.46905534 19.22076142 19 27 C18.75170228 30.02434759 18.41483331 32.99245853 18 36 C16.92250488 35.79105103 16.92250488 35.79105103 15.82324219 35.57788086 C-8.00344842 31.24348369 -27.4136644 34.03394452 -48.57421875 45.23046875 C-54.24993249 48.16216581 -54.24993249 48.16216581 -57 49 C-57.721875 48.484375 -58.44375 47.96875 -59.1875 47.4375 C-62.53021782 45.72899978 -63.01388405 46.02300364 -66.44921875 47.12890625 C-72.26894173 49.01310266 -77.95328653 51.21322919 -83.625 53.5 C-84.70966553 53.93723389 -85.79433105 54.37446777 -86.91186523 54.82495117 C-111.26162456 64.74496241 -135.17045867 75.99366871 -157.00170898 90.75 C-161.81876041 94 -161.81876041 94 -164 94 C-164 93.34 -164 92.68 -164 92 C-164.763125 91.7525 -165.52625 91.505 -166.3125 91.25 C-168.34302414 90.56168673 -170.36799833 89.85109188 -172.35546875 89.046875 C-179.79415857 86.1021647 -187.06644515 84.88021922 -195 84 C-194.7834375 83.18917969 -194.566875 82.37835938 -194.34375 81.54296875 C-192.49828425 74.20382486 -191.59092697 67.56027563 -192 60 C-190.948125 59.505 -189.89625 59.01 -188.8125 58.5 C-185.07281003 56.6334297 -181.54550451 54.52457691 -178 52.3125 C-161.05191295 41.76875921 -143.36948154 32.24131878 -125.19189453 23.99804688 C-122.64258354 22.83725568 -120.10076102 21.66072631 -117.55859375 20.484375 C-115.62258228 19.59334478 -113.68638472 18.70271878 -111.75 17.8125 C-110.85128174 17.39621338 -109.95256348 16.97992676 -109.02661133 16.55102539 C-92.50448988 9 -92.50448988 9 -87 9 C-88.34546226 14.11275657 -90.79449538 18.19016508 -93.5625 22.6328125 C-94.82742178 24.71580869 -95.94750264 26.80392378 -97 29 C-94.71086654 29.79967062 -92.41907263 30.58972129 -90.125 31.375 C-89.49335938 31.59671875 -88.86171875 31.8184375 -88.2109375 32.046875 C-67.86911518 38.96309459 -45.94210035 38.29716124 -26.39208984 29.27099609 C-20.55183719 26.16787757 -16.31450156 21.97883259 -12 17 C-11.31035156 16.28585938 -10.62070312 15.57171875 -9.91015625 14.8359375 C-5.69781388 10.36533312 -2.74962858 5.47391497 0 0 Z " fill="#10A1E9" transform="translate(433,144)"/>
<path d="M0 0 C4.06175758 2.82004163 6.56155758 5.87385458 7.5703125 10.765625 C7.81554821 16.74937627 6.91378453 20.47468664 3 25 C3.79664063 25.31453125 4.59328125 25.6290625 5.4140625 25.953125 C20.46271764 32.03117063 28.71016596 40.61126295 35.98046875 54.8984375 C37 58 37 58 36.4765625 60.24609375 C34.60270462 62.47191964 32.81247666 63.43994738 30.1875 64.6875 C29.33542969 65.10386719 28.48335938 65.52023437 27.60546875 65.94921875 C18.51823567 69.61408486 8.92888658 68.60559891 0 65 C-9.09052436 60.0259395 -11.97893121 53.48514336 -15 44 C-15.4125 44.42410156 -15.825 44.84820312 -16.25 45.28515625 C-19.421405 48.50611445 -22.63997846 51.60818469 -26.0625 54.5625 C-26.7225 55.13871094 -27.3825 55.71492188 -28.0625 56.30859375 C-29.32688345 57.41238011 -30.59747915 58.50910203 -31.875 59.59765625 C-33.7829434 61.25720847 -33.7829434 61.25720847 -36 64 C-35.72948969 68.06441733 -34.07181076 70.90668496 -31.9375 74.3125 C-31.38964844 75.19550781 -30.84179688 76.07851563 -30.27734375 76.98828125 C-29.64505859 77.98408203 -29.64505859 77.98408203 -29 79 C-49.56347304 76.13768507 -67.06390834 69.34350362 -83 56 C-83.76054687 55.41089844 -84.52109375 54.82179688 -85.3046875 54.21484375 C-93.25167805 47.39242733 -96.62843414 36.12121017 -98 26 C-97.42556152 26.176521 -96.85112305 26.35304199 -96.25927734 26.53491211 C-93.63237197 27.33970954 -91.00371899 28.13864729 -88.375 28.9375 C-87.47136719 29.21529297 -86.56773437 29.49308594 -85.63671875 29.77929688 C-77.69537271 32.1848871 -70.59375697 33.16847117 -62.3125 33.125 C-61.42852539 33.12306641 -60.54455078 33.12113281 -59.63378906 33.11914062 C-53.38331217 33.07785307 -47.20510285 32.79698569 -41 32 C-40.938125 31.21625 -40.87625 30.4325 -40.8125 29.625 C-38.71299236 20.25796592 -33.40211583 11.95080113 -25.64453125 6.27734375 C-18.08634162 1.5080675 -9.02390971 -3.4228623 0 0 Z " fill="#10A0E8" transform="translate(238,230)"/>
<path d="M0 0 C8.7872211 8.00650391 13.62238968 17.27693206 15.125 29 C15.23984192 32.45961293 15.21959207 35.91399406 15.1875 39.375 C15.18298828 40.30183594 15.17847656 41.22867188 15.17382812 42.18359375 C15.16211574 44.45579709 15.14571372 46.72786388 15.125 49 C14.795 49 14.465 49 14.125 49 C14.125 44.38 14.125 39.76 14.125 35 C11.34449219 35.54140625 11.34449219 35.54140625 8.5078125 36.09375 C6.08856052 36.56259728 3.66928865 37.03134199 1.25 37.5 C0.02667969 37.73847656 -1.19664062 37.97695312 -2.45703125 38.22265625 C-3.62363281 38.44824219 -4.79023438 38.67382812 -5.9921875 38.90625 C-7.61036377 39.22045898 -7.61036377 39.22045898 -9.26123047 39.54101562 C-11.875 40 -11.875 40 -13.875 40 C-14.03935547 38.67935547 -14.03935547 38.67935547 -14.20703125 37.33203125 C-14.36558594 36.17058594 -14.52414062 35.00914062 -14.6875 33.8125 C-14.91373047 32.08966797 -14.91373047 32.08966797 -15.14453125 30.33203125 C-15.89797768 26.89518738 -16.74036728 24.78238334 -18.875 22 C-20.9255663 20.60494667 -20.9255663 20.60494667 -23.25 19.75 C-24.04019531 19.4303125 -24.83039063 19.110625 -25.64453125 18.78125 C-28.03590285 17.94364173 -30.35934768 17.3246003 -32.875 17 C-33.1534375 18.2065625 -33.1534375 18.2065625 -33.4375 19.4375 C-37.96562988 30.6593871 -50.05559074 42.82305177 -60.91479492 47.96606445 C-81.52099007 56.6771382 -104.0122977 56.80483897 -124.91015625 48.84375 C-126.9316573 47.96891183 -128.91205098 46.9993195 -130.875 46 C-130.58367187 45.48953125 -130.29234375 44.9790625 -129.9921875 44.453125 C-126.39660222 38.07604922 -123.11419826 31.56388856 -119.875 25 C-119.20887386 23.66639654 -118.54230635 22.3330133 -117.875 21 C-117.29121582 21.12117188 -116.70743164 21.24234375 -116.10595703 21.3671875 C-113.40593977 21.92158394 -110.7030988 22.46083744 -108 23 C-107.0821875 23.19078125 -106.164375 23.3815625 -105.21875 23.578125 C-95.42311092 25.50965947 -87.18927403 25.87344085 -77.875 22 C-76.864375 21.5875 -75.85375 21.175 -74.8125 20.75 C-67.68070682 16.50127215 -62.80801328 11.27985632 -58.875 4 C-58.38 4.99 -58.38 4.99 -57.875 6 C-57.05 5.74605469 -56.225 5.49210938 -55.375 5.23046875 C-48.19787748 3.09175032 -41.09368815 1.37982366 -33.71899414 0.0793457 C-29.53316655 -0.66562861 -25.42849039 -1.56131709 -21.3125 -2.625 C-12.54059219 -4.8714642 -7.42895799 -6.04583146 0 0 Z " fill="#11A1E9" transform="translate(465.875,127)"/>
<path d="M0 0 C4.22135847 2.35123459 6.2929179 4.45481509 8.11791992 9.07641602 C9.3793894 13.60483731 9.12322894 18.33944959 9.12695312 23.00585938 C9.25902284 28.65753256 10.14619305 33.54716584 13.6875 38.12109375 C16.2036927 39.65709179 17.99742806 40.1806953 20.9375 40.74609375 C25.43634004 42.39566843 27.55075468 44.63868878 30.7578125 48.1015625 C32.46271765 49.88584583 34.14414068 51.29125209 36.125 52.74609375 C39.27166506 55.66251502 39.52462987 56.88647026 39.6875 61.12109375 C39.74164153 64.12348753 39.74754558 67.11881456 39.6875 70.12109375 C23.64486375 77.56519543 6.95447385 82.7713411 -10.875 77.99609375 C-24.31750667 72.9844275 -31.7750199 65.03870992 -37.9296875 52.42578125 C-41.645483 43.5456598 -41.64115355 32.66795695 -38.47265625 23.58984375 C-33.74954039 13.53930765 -25.73972414 5.16645943 -15.8125 0.12109375 C-10.39529618 -1.42667877 -5.36848691 -2.04038776 0 0 Z " fill="transparent" transform="translate(69.3125,183.87890625)"/>
<path d="M0 0 C0.15855469 1.22074219 0.31710938 2.44148438 0.48046875 3.69921875 C3.16037069 23.12355968 9.19185294 39.1881845 24.53125 52.13671875 C36.26988835 60.9964189 49.34964865 65.13317635 64 64 C72.32179982 62.3728872 79.27410872 59.03997043 86.44140625 54.5859375 C88.58903473 53.25473572 90.72057018 52.08339958 93 51 C93.89592781 56.50884538 94.30971192 61.92138918 94.4375 67.5 C94.48326172 68.31597656 94.52902344 69.13195312 94.57617188 69.97265625 C94.66017664 74.52352329 94.23904557 77.29836912 91.296875 80.8671875 C84.35285608 87.92084343 75.12521226 92.42071416 66 96 C65.1853125 96.32097656 64.370625 96.64195312 63.53125 96.97265625 C50.74865652 101.21379452 35.52447425 100.51616408 23.4296875 94.78125 C14.56510985 90.01819335 9.38314504 83.21460075 5.78076172 73.92089844 C4.31124159 68.42329405 4.75288303 62.89044489 5 57.25 C5.81843659 48.41958589 5.81843659 48.41958589 3.13671875 40.2890625 C-0.44576158 36.45115853 -3.12289884 34.83892638 -8.375 34.5625 C-13.19185049 34.69966325 -16.0611137 36.31820507 -20 39 C-21.8775915 37.1224085 -21.34665543 34.20637223 -21.4375 31.6875 C-21.35151143 21.1216549 -16.81160117 13.19441184 -9.66796875 5.625 C-3.89423077 0 -3.89423077 0 0 0 Z " fill="#FDFEFE" transform="translate(218,79)"/>
<path d="M0 0 C1.92388515 2.88582773 2.68597518 5.03601835 3.6875 8.3125 C5.96364364 14.67058389 8.99182532 18.10454543 15.08984375 20.98828125 C20.6571586 23.17581092 25.29734819 24.12720274 31.25 24.0625 C32.32765625 24.05347656 33.4053125 24.04445313 34.515625 24.03515625 C35.74539063 24.01775391 35.74539063 24.01775391 37 24 C37 24.66 37 25.32 37 26 C35.50843208 27.30755322 33.95582815 28.54556357 32.3828125 29.75390625 C25.69913298 35.10363563 19.70641343 41.02475834 13.68945312 47.10473633 C11.84832641 48.96444277 9.99899683 50.81569941 8.1484375 52.66601562 C6.97087602 53.84848236 5.79377472 55.03140759 4.6171875 56.21484375 C4.06626434 56.76687973 3.51534119 57.31891571 2.94772339 57.88768005 C0.12768563 60.68326267 0.12768563 60.68326267 -2 64 C0.97 64 3.94 64 7 64 C7 64.33 7 64.66 7 65 C-28.424773 65.95171032 -58.88308115 56.99403681 -87 35 C-86.06315933 30.2323028 -83.4131701 27.08228585 -80.5625 23.25 C-80.05912109 22.55261719 -79.55574219 21.85523438 -79.03710938 21.13671875 C-78.55177734 20.47800781 -78.06644531 19.81929688 -77.56640625 19.140625 C-77.12240479 18.53766602 -76.67840332 17.93470703 -76.22094727 17.31347656 C-75.81803467 16.8800293 -75.41512207 16.44658203 -75 16 C-74.34 16 -73.68 16 -73 16 C-72.34 14.35 -71.68 12.7 -71 11 C-67.3744506 12.63930344 -64.3411059 14.85762777 -61.125 17.1875 C-47.02375686 27.10628996 -32.00594833 32.36234271 -15 35 C-15.51691406 34.33613281 -16.03382813 33.67226563 -16.56640625 32.98828125 C-17.22511719 32.10527344 -17.88382812 31.22226562 -18.5625 30.3125 C-19.22378906 29.44238281 -19.88507813 28.57226562 -20.56640625 27.67578125 C-22 25 -22 25 -22.0625 22.53515625 C-20.58292403 19.00484446 -18.17183003 16.70698583 -15.4375 14.125 C-14.62865356 13.33935669 -14.62865356 13.33935669 -13.8034668 12.5378418 C-9.66260746 8.54498041 -5.39018749 4.71662448 -1 1 C-0.67 0.67 -0.34 0.34 0 0 Z " fill="#1691E5" transform="translate(223,273)"/>
<path d="M0 0 C6.09449644 -0.35456456 9.58003416 0.3271212 15.0625 3.3125 C19.65335854 5.77576156 24.19175709 8.00932618 29 10 C29.30680444 18.16440715 28.90595414 25.68043889 25 33 C26.27230469 33.02126953 26.27230469 33.02126953 27.5703125 33.04296875 C36.42947251 33.40317635 48.37290063 34.37290063 55 41 C55.17944336 43.49926758 55.17944336 43.49926758 55.08984375 46.64453125 C55.06986328 47.79759766 55.04988281 48.95066406 55.02929688 50.13867188 C54.96916937 52.54505138 54.90424529 54.95131693 54.83398438 57.35742188 C54.71538089 64.76400493 55.46096588 71.21341859 57.44360352 78.36206055 C58 81 58 81 57 84 C56.50371094 83.27554688 56.00742187 82.55109375 55.49609375 81.8046875 C47.35770283 70.22253723 39.72586794 64.50447692 26 61 C26.639375 60.21625 27.27875 59.4325 27.9375 58.625 C31.31928456 54.32091057 31.46933842 51.23540382 31.3984375 45.83984375 C30.85990699 42.00149394 29.65140373 39.93082955 26.890625 37.25390625 C23.33524017 34.89589276 20.19537518 34.55214205 16 35 C5.95366507 37.37748763 -2.82496301 42.36123439 -8.72265625 50.921875 C-11.87908198 56.05709973 -14.26399771 61.21332571 -16 67 C-31.97770185 71.10436378 -48.38686617 69.80020817 -64 65 C-64.98484375 64.69964844 -65.9696875 64.39929688 -66.984375 64.08984375 C-69.27241605 63.24822356 -71.08108594 62.49899902 -73 61 C-74.5 57.5 -74.5 57.5 -75 54 C-75.17273438 53.40703125 -75.34546875 52.8140625 -75.5234375 52.203125 C-77.19020015 44.49776322 -76.2380302 35.73768877 -75 28 C-71.49164709 29.33397449 -68.14875017 30.89608964 -64.7878418 32.56420898 C-51.74226218 38.94630301 -37.00408783 41.45943898 -22.609375 38.2421875 C-12.90526181 34.87491325 -6.04338024 29.57953045 -1.125 20.5625 C1.06843259 14.11047313 0.22003105 6.7150218 0 0 Z " fill="#123CB5" transform="translate(213,195)"/>
<path d="M0 0 C0.22550537 0.92111572 0.22550537 0.92111572 0.45556641 1.86083984 C4.49555371 19.5705231 4.49555371 19.5705231 14.375 34.4375 C22.56915553 39.31497353 29.63682115 39.38030041 39 39.1875 C40.25167969 39.17396484 41.50335938 39.16042969 42.79296875 39.14648438 C45.86243116 39.11133786 48.93098509 39.06213226 52 39 C51.22732482 37.10539439 50.45045609 35.21249876 49.671875 33.3203125 C49.2397168 32.26602051 48.80755859 31.21172852 48.36230469 30.12548828 C42.96853555 17.75075128 34.70756704 7.80865601 23 1 C23.66 0.67 24.32 0.34 25 0 C27.42072266 1.06209207 29.68405335 2.17775637 32 3.4375 C32.67264893 3.79859863 33.34529785 4.15969727 34.03833008 4.53173828 C39.10281466 7.32806461 43.5710329 10.53999743 47.94921875 14.3359375 C49.8960647 15.91566393 51.7192879 16.98062981 54 18 C54.74765625 17.37351563 55.4953125 16.74703125 56.265625 16.1015625 C57.25046875 15.28429687 58.2353125 14.46703125 59.25 13.625 C60.22453125 12.81289062 61.1990625 12.00078125 62.203125 11.1640625 C64.4552682 9.42148243 66.40711386 8.123584 69 7 C72.48240241 12.01875641 75.06257853 17.11883812 77.375 22.75 C77.78709717 23.7246521 77.78709717 23.7246521 78.20751953 24.71899414 C79.56804974 28.13266408 80.49676523 30.51341747 79 34 C77.824375 33.0409375 77.824375 33.0409375 76.625 32.0625 C72.66675915 28.95245362 70.24787595 28.66336593 65.32421875 28.7109375 C61.78520095 29.15108425 59.66974395 30.72095029 57 33 C53.2961472 38.5557792 54.44733624 46.46485768 55.453125 52.8984375 C55.80577702 54.53575045 56.17197998 56.17023162 56.5546875 57.80078125 C57.18762261 60.92659236 57.13817741 63.82191957 57 67 C40.30115337 72.02372041 19.79469103 70.57566238 4.1875 62.8125 C-8.25061182 55.15287182 -16.59179503 44.36859656 -22 31 C-22.54527344 29.700625 -22.54527344 29.700625 -23.1015625 28.375 C-24.4250195 24.87647019 -24.56013462 22.73423082 -24 19 C-19.55352412 11.46203942 -9.68810564 0 0 0 Z " fill="#123CB5" transform="translate(324,210)"/>
<path d="M0 0 C17.61916696 -0.61145 31.1965238 -0.30120513 45 12 C49.80301738 17.11548134 53.10814165 22.63791162 56 29 C56.66 29 57.32 29 58 29 C59.1149548 26.88005854 60.21887421 24.75594393 61.3125 22.625 C61.63935791 21.99174805 61.96621582 21.35849609 62.30297852 20.70605469 C64.57039243 16.1906211 66.01904532 11.91049084 66.80859375 6.890625 C68 5 68 5 71.47265625 3.8046875 C76.27506022 2.8374055 81.12656405 2.33165068 86 1.875 C86.87011719 1.78863281 87.74023438 1.70226562 88.63671875 1.61328125 C90.75729499 1.40355393 92.87858079 1.20102158 95 1 C95.79817313 18.27157975 91.70959557 31.43560664 82 46 C79.08308094 46.8862621 76.27423922 47.59761064 73.30078125 48.2265625 C72.43237106 48.41971039 71.56396088 48.61285828 70.66923523 48.81185913 C67.88601978 49.42761241 65.09939423 50.02614336 62.3125 50.625 C60.45354304 51.03540436 58.59481578 51.44685065 56.73632812 51.859375 C42.10098302 55.08048247 42.10098302 55.08048247 35 56 C34.85304688 55.39414062 34.70609375 54.78828125 34.5546875 54.1640625 C32.20013445 45.36831834 28.25956482 36.80765186 21 31 C17.3003051 29.27921167 13.81131429 28.83301749 9.79296875 28.453125 C8.89473389 28.36708008 7.99649902 28.28103516 7.07104492 28.19238281 C6.3876001 28.12889648 5.70415527 28.06541016 5 28 C4.95512451 27.43603516 4.91024902 26.87207031 4.86401367 26.29101562 C4.65042777 23.69287478 4.41907848 21.09659654 4.1875 18.5 C4.08211914 17.1696875 4.08211914 17.1696875 3.97460938 15.8125 C3.44467641 10.04682939 2.27273166 5.33002274 0 0 Z " fill="#1F63DA" transform="translate(404,245)"/>
<path d="M0 0 C10.32973243 9.3087705 18.03402288 22.22869351 19.28515625 36.1796875 C19.7574698 47.2487795 16.61899121 56.17467838 10 65 C7 64 7 64 5.60546875 61.7421875 C5.13753906 60.79601562 4.66960937 59.84984375 4.1875 58.875 C-1.46625727 48.20180944 -8.96554027 41.20500957 -20.6640625 37.33984375 C-26.14343261 35.78353051 -31.45410462 35.45188296 -37.125 35.3125 C-38.08148438 35.27833984 -39.03796875 35.24417969 -40.0234375 35.20898438 C-42.34884073 35.12759526 -44.67391876 35.05810388 -47 35 C-47.2266333 34.42556152 -47.4532666 33.85112305 -47.68676758 33.25927734 C-48.72589341 30.63007443 -49.76916084 28.00253364 -50.8125 25.375 C-51.34713867 24.01955078 -51.34713867 24.01955078 -51.89257812 22.63671875 C-53.40109756 18.84466071 -54.89145707 15.20221059 -56.82421875 11.6015625 C-58 9 -58 9 -58.13671875 6.8515625 C-56.23840734 3.75946763 -53.02829953 2.75276435 -49.8125 1.375 C-48.8215332 0.92640625 -48.8215332 0.92640625 -47.81054688 0.46875 C-45.88670818 -0.38966568 -43.94938132 -1.20156397 -42 -2 C-41.06542969 -2.391875 -40.13085938 -2.78375 -39.16796875 -3.1875 C-27.30943208 -6.22890028 -11.04692634 -5.42247158 0 0 Z " fill="#FDFDFE" transform="translate(452,210)"/>
<path d="M0 0 C4.48816817 3.27388052 9.00511053 6.6604451 11 12 C12.14303423 19.49566677 11.25613662 25.34294509 6.96484375 31.61328125 C0.27427683 39.74039136 -8.1356339 46.94006184 -19 48 C-25.26985419 48.49958998 -31.16234766 47.76627984 -37.3125 46.625 C-37.99417236 46.49899414 -38.67584473 46.37298828 -39.37817383 46.24316406 C-43.10768792 45.5074439 -46.52582242 44.54557223 -50 43 C-49.70996094 41.9790625 -49.70996094 41.9790625 -49.4140625 40.9375 C-47.98226648 35.60724948 -46.86965932 30.4252664 -46.32885742 24.93896484 C-45.42517114 15.78954711 -43.61181679 8.10590302 -36.75 1.5625 C-26.2139622 -6.41866168 -11.36385162 -6.18908711 0 0 Z " fill="#FDFEFE" transform="translate(398,105)"/>
<path d="M0 0 C0.66 0 1.32 0 2 0 C2.35191406 0.95519531 2.70382812 1.91039062 3.06640625 2.89453125 C9.14284779 18.97935228 17.12126064 32.12236726 33 40 C35.95780149 41.21157043 38.91353222 42.17560144 42 43 C43.20897949 43.33918457 44.41795898 43.67836914 45.66357422 44.02783203 C49.7482586 45.04318025 53.56144414 45.22934319 57.78125 45.1953125 C58.82968079 45.19106766 58.82968079 45.19106766 59.89929199 45.18673706 C62.09971316 45.1756727 64.29970493 45.15059606 66.5 45.125 C68.00520239 45.11495235 69.51041126 45.10582965 71.015625 45.09765625 C74.67721938 45.07577893 78.33856768 45.04134696 82 45 C80.69720923 54.80592903 77.08224394 60.88873502 69.4765625 67.2734375 C65.59527905 69.97931649 61.50645455 71.62237918 57 73 C56.37738281 73.19078125 55.75476563 73.3815625 55.11328125 73.578125 C41.54154623 76.28745473 29.91503427 72.2383932 18.5703125 65.07421875 C7.80031164 56.38292626 -0.51167289 40.68613842 -2 27 C-2.56226753 17.69813936 -2.57846901 8.99895956 0 0 Z " fill="#FCFCFE" transform="translate(298,233)"/>
<path d="M0 0 C0.67580109 -0.00095673 1.35160217 -0.00191345 2.04788208 -0.00289917 C3.46128433 -0.00357429 4.8746898 -0.00176706 6.28808594 0.00244141 C8.46035578 0.00784995 10.63242357 0.00244826 12.8046875 -0.00390625 C14.18229212 -0.00324633 15.55989662 -0.00196697 16.9375 0 C18.81091064 0.00169189 18.81091064 0.00169189 20.72216797 0.00341797 C23.5703125 0.1328125 23.5703125 0.1328125 24.5703125 1.1328125 C25.43663669 12.2672087 24.46693092 20.34964992 17.5703125 29.3203125 C11.52839455 35.87336884 2.58083017 39.86748977 -6.265625 40.3359375 C-22.27021058 40.61961244 -35.96143081 38.17240021 -49.4296875 29.1328125 C-50.4296875 26.1328125 -50.4296875 26.1328125 -49.828125 24.265625 C-47.55190996 19.80007336 -45.24732396 16.48488354 -41.4296875 13.1328125 C-40.6665625 12.4521875 -39.9034375 11.7715625 -39.1171875 11.0703125 C-27.90030453 2.98372245 -13.63054723 0.01224353 0 0 Z " fill="#FDFDFE" transform="translate(189.4296875,194.8671875)"/>
<path d="M0 0 C12.71533212 -0.70351223 12.71533212 -0.70351223 18 3 C26.75378258 12.57144359 31.42046793 23.15997804 31.28125 36.08984375 C30.82061738 40.85611181 29.18759925 44.77691933 27 49 C26.67257812 49.63808594 26.34515625 50.27617187 26.0078125 50.93359375 C21.55735918 58.22648989 13.04723423 62.79198125 5 65 C-6.72654219 66.41244066 -16.71867124 62.91405848 -26.453125 56.5625 C-28 55 -28 55 -28 51 C-26.27734375 49.32421875 -26.27734375 49.32421875 -23.9375 47.6875 C-10.82092114 37.98369871 -3.97824873 26.27126494 -1.3125 10.05859375 C-0.82582695 6.70933685 -0.38313529 3.36251634 0 0 Z " fill="#FCFCFE" transform="translate(409,273)"/>
<path d="M0 0 C8.89203514 -0.49400195 17.21096196 2.17390376 24.0546875 7.87890625 C31.48593108 15.09436055 34.33990069 22.62270817 34.4921875 32.81640625 C34.52665368 42.35492125 31.83201404 48.53697766 25.3046875 55.56640625 C20.44686438 60.1028233 15.85936668 63.19140625 9.1171875 63.19140625 C8.68051242 54.3285195 9.55817771 46.06930527 11.05004883 37.34863281 C12.81359255 28.34260832 12.81359255 28.34260832 10.8046875 19.75390625 C7.72294957 16.9004452 4.28992407 16.9689827 0.25 16.66796875 C-3.3434881 17.54988708 -4.6542768 19.27238981 -6.8828125 22.19140625 C-8.0348297 25.57075598 -8.59266838 28.98093954 -9.1328125 32.50390625 C-9.29555664 33.47344238 -9.45830078 34.44297852 -9.62597656 35.44189453 C-10.94666585 43.67382951 -11.64408121 51.85968434 -11.8828125 60.19140625 C-18.79792645 57.72848895 -23.06741408 53.04643025 -26.8203125 46.81640625 C-30.51812704 38.73051845 -30.37662314 29.08024108 -27.80859375 20.67578125 C-23.44213748 11.15331772 -16.56626273 5.02268438 -6.8828125 1.19140625 C-4.54715796 0.47274331 -2.41814716 0.24582824 0 0 Z " fill="#FCFCFE" transform="translate(295.8828125,325.80859375)"/>
<path d="M0 0 C9.74909679 0.12060738 18.82152244 2.60184874 27.8125 6.375 C25.83437494 9.01250007 24.03422224 11.20673506 21.3984375 13.20703125 C18.62460788 15.53252285 17.02019328 17.741861 15.125 20.8125 C14.54363281 21.73933594 13.96226562 22.66617188 13.36328125 23.62109375 C10.14438172 29.33727554 9.49277435 33.7919364 9.3125 40.25 C9.26851581 41.81014521 9.21653707 43.37008718 9.15625 44.9296875 C9.13755859 45.61530762 9.11886719 46.30092773 9.09960938 47.00732422 C8.8125 49.375 8.8125 49.375 7.80322266 52.71362305 C6.78866157 56.46309879 6.58276381 59.52967904 6.6171875 63.40234375 C6.62363281 64.68818359 6.63007813 65.97402344 6.63671875 67.29882812 C6.65342399 68.63672154 6.67035381 69.97461217 6.6875 71.3125 C6.69754678 72.67772783 6.70666964 74.0429628 6.71484375 75.40820312 C6.73832395 78.73065199 6.77116641 82.05273321 6.8125 85.375 C1.02035963 85.12261916 -3.06485354 84.84303752 -7.1875 80.375 C-8.69294779 78.04253712 -9.99755418 75.83218833 -11.25 73.375 C-11.59361572 72.71363037 -11.93723145 72.05226074 -12.29125977 71.37084961 C-16.44026773 63.18209581 -19.77744514 54.63277697 -20.1875 45.375 C-20.26226562 44.29863281 -20.33703125 43.22226563 -20.4140625 42.11328125 C-21.0026043 27.29132065 -16.56162989 14.56705813 -8.1875 2.375 C-5.44358504 -0.36891496 -3.84076579 0.04339848 0 0 Z " fill="#113BB5" transform="translate(188.1875,71.625)"/>
<path d="M0 0 C3.58552881 1.63687185 4.79315055 2.68972583 7 6 C7.21338238 8.77397092 7.17310614 11.23494552 7 14 C6.96720947 15.10972168 6.93441895 16.21944336 6.90063477 17.36279297 C6.13841009 27.89423144 2.65523391 32.91861582 -5.3125 39.875 C-7.33077506 41.73345188 -9.32420102 43.61758026 -11.31640625 45.50390625 C-11.80853607 45.96462021 -12.30066589 46.42533417 -12.80770874 46.90000916 C-18.55995288 52.34982986 -23.12742139 58.54714956 -27.734375 64.95703125 C-30 68 -30 68 -32 69 C-42.69399905 62.12853678 -54.86421393 52.93735872 -58.53540039 40.13256836 C-59.3463207 36.07603492 -59.29751025 34.49954619 -57.11328125 30.83203125 C-56.20278181 29.80458233 -55.2675115 28.79871171 -54.3125 27.8125 C-53.57604248 27.00099487 -53.57604248 27.00099487 -52.82470703 26.1730957 C-51.77957231 25.02720722 -50.72422955 23.89055862 -49.65966797 22.76269531 C-47.95736303 20.95471625 -46.2906332 19.11873011 -44.62890625 17.2734375 C-41.79226393 14.14090005 -38.95625638 11.02052283 -36 8 C-35.67 8 -35.34 8 -35 8 C-34.98582031 9.11117188 -34.97164063 10.22234375 -34.95703125 11.3671875 C-34.63766833 23.50024901 -32.79672536 31.92970496 -23.74609375 40.625 C-21.92112905 42.06210867 -20.10966373 43.03980294 -18 44 C-18.04640625 43.10023438 -18.0928125 42.20046875 -18.140625 41.2734375 C-18.37962424 32.75482158 -17.72161792 24.71356737 -16.25 16.3125 C-16.09305664 15.36874512 -15.93611328 14.42499023 -15.77441406 13.45263672 C-14.81427769 8.33037366 -13.87774232 4.74797535 -10 1 C-6.80876226 -0.59561887 -3.47254909 -0.3799142 0 0 Z " fill="#2164DB" transform="translate(302,342)"/>
<path d="M0 0 C-0.51949219 0.825 -1.03898437 1.65 -1.57421875 2.5 C-9.90782863 16.12609196 -14.2969213 28.8064965 -13 45 C-12.89171875 46.50626953 -12.89171875 46.50626953 -12.78125 48.04296875 C-11.34884659 60.10445655 -5.20401356 71.70762728 1 82 C-14.12087182 79.58066051 -26.91650325 67.67403696 -36 56 C-48.20745066 38.06295778 -48.20745066 38.06295778 -46.81640625 29.453125 C-43.51692605 19.53889742 -34.25552812 10.91207789 -25.23681641 6.04931641 C-16.8627108 1.93661625 -9.3869558 -0.18773912 0 0 Z " fill="#FCFDFE" transform="translate(182,72)"/>
<path d="M0 0 C1.06734375 0.90685547 1.06734375 0.90685547 2.15625 1.83203125 C3.22359375 2.71955078 3.22359375 2.71955078 4.3125 3.625 C5.47265625 4.62466797 5.47265625 4.62466797 6.65625 5.64453125 C7.62691406 6.41410156 8.59757812 7.18367188 9.59765625 7.9765625 C18.27549168 15.21817081 26.98371414 26.99691795 30.65625 37.64453125 C30.39834809 43.47172026 28.46651166 48.92873957 26.71875 54.45703125 C24.84737922 60.38076211 23.2334333 66.22494797 22.1081543 72.33911133 C20.38042684 81.15322823 16.85292213 88.74011967 12.65625 96.64453125 C12.32625 96.64453125 11.99625 96.64453125 11.65625 96.64453125 C11.2524532 92.50245943 10.94625042 88.35849887 10.65625 84.20703125 C10.54152344 83.04236328 10.42679687 81.87769531 10.30859375 80.67773438 C9.77446576 72.0588509 9.77446576 72.0588509 12.37109375 67.89404297 C14.36744977 65.66709519 16.45465906 63.6645904 18.65625 61.64453125 C21.87840671 56.81129619 22.57298361 52.32827964 21.65625 46.64453125 C19.46419622 42.26042369 17.22509617 39.51360468 12.65625 37.64453125 C8.81746016 37.09284888 5.65904155 37.01118922 2.28125 39.14453125 C1.745 39.63953125 1.20875 40.13453125 0.65625 40.64453125 C-0.00375 40.64453125 -0.66375 40.64453125 -1.34375 40.64453125 C-2.71875 38.9921875 -2.71875 38.9921875 -4.34375 36.70703125 C-12.35050273 26.2391865 -21.73548577 20.34547879 -33.34375 14.64453125 C-35.34375 13.64453125 -37.34375 12.64453125 -39.34375 11.64453125 C-31.32676574 4.70646823 -10.38455502 -6.00573432 0 0 Z " fill="#103BB5" transform="translate(300.34375,58.35546875)"/>
<path d="M0 0 C0.57443848 0.176521 1.14887695 0.35304199 1.74072266 0.53491211 C4.36762803 1.33970954 6.99628101 2.13864729 9.625 2.9375 C10.98044922 3.35418945 10.98044922 3.35418945 12.36328125 3.77929688 C20.32869861 6.19217878 27.44442755 7.16241249 35.75 7.125 C36.59304687 7.12886719 37.43609375 7.13273437 38.3046875 7.13671875 C44.25605588 7.1276188 50.09045761 6.69328945 56 6 C56.01401855 6.8521106 56.01401855 6.8521106 56.02832031 7.72143555 C56.37370953 24.47111941 58.25064051 36.95171033 68 51 C68.33 51.66 68.66 52.32 69 53 C48.43652696 50.13768507 30.93609166 43.34350362 15 30 C14.23945313 29.41089844 13.47890625 28.82179688 12.6953125 28.21484375 C4.74832195 21.39242733 1.37156586 10.12121017 0 0 Z " fill="#FCFDFE" transform="translate(140,256)"/>
<path d="M0 0 C-1.051875 0.49306641 -1.051875 0.49306641 -2.125 0.99609375 C-11.62385458 5.75842709 -18.51789075 11.77130407 -22 22 C-22.66 22 -23.32 22 -24 22 C-24.83315613 27.8254277 -25.19224544 33.49242889 -25.1875 39.375 C-25.18814453 40.20555908 -25.18878906 41.03611816 -25.18945312 41.8918457 C-25.1383606 47.82496465 -24.51055046 53.24102639 -23 59 C-26.65860623 61.67787718 -30.32627434 64.34290282 -34 67 C-35.42892578 68.03447266 -35.42892578 68.03447266 -36.88671875 69.08984375 C-37.76972656 69.72019531 -38.65273438 70.35054688 -39.5625 71 C-40.36816406 71.5775 -41.17382812 72.155 -42.00390625 72.75 C-44 74 -44 74 -46 74 C-46.33 74.99 -46.66 75.98 -47 77 C-49.52095148 74.47904852 -49.97138396 72.40729064 -51 69 C-51.33 67.9275 -51.66 66.855 -52 65.75 C-54.36187777 56.89295834 -55.31778325 48.74148137 -55.25 39.5625 C-55.25773437 38.48806641 -55.26546875 37.41363281 -55.2734375 36.30664062 C-55.27085937 35.27861328 -55.26828125 34.25058594 -55.265625 33.19140625 C-55.26336914 32.26529541 -55.26111328 31.33918457 -55.25878906 30.38500977 C-55 28 -55 28 -53 25 C-53 25.66 -53 26.32 -53 27 C-52.44763672 26.65332275 -51.89527344 26.30664551 -51.32617188 25.94946289 C-39.70847328 18.67155705 -28.06573902 11.51371449 -16 5 C-15.11948975 4.51781006 -15.11948975 4.51781006 -14.22119141 4.02587891 C-12.57200662 3.12763315 -10.91125723 2.25071702 -9.25 1.375 C-8.32703125 0.88773438 -7.4040625 0.40046875 -6.453125 -0.1015625 C-3.76266054 -1.08692369 -2.63128634 -1.02054564 0 0 Z " fill="#1590E4" transform="translate(322,211)"/>
<path d="M0 0 C11.22628623 5.7529723 18.67253997 16.24798554 23.9140625 27.46484375 C24.3125 29.4375 24.3125 29.4375 23.69921875 31.5234375 C21.92472219 33.97274261 20.22275085 34.83097898 17.5 36.125 C16.64792969 36.54136719 15.79585938 36.95773437 14.91796875 37.38671875 C5.83073567 41.05158486 -3.75861342 40.04309891 -12.6875 36.4375 C-18.9480589 33.01191117 -23.04851782 28.71815958 -25.5 22.0625 C-27.18838394 16.27929983 -27.86659643 11.14744663 -24.9375 5.625 C-19.04328746 -2.72513443 -9.23726951 -3.75916707 0 0 Z " fill="#FCFDFE" transform="translate(250.6875,258.5625)"/>
<path d="M0 0 C12.07359248 4.33411012 21.35300914 10.86669548 30.1875 20 C30.67863281 20.50644043 31.16976562 21.01288086 31.67578125 21.53466797 C35.18523839 25.38371101 35.18523839 25.38371101 35.1953125 28.12890625 C31.774162 34.48057715 25.21872792 41.47893109 18.171875 43.609375 C10.91554494 45.03778643 4.6587171 43.29613072 -1.8125 40 C-9.97729033 34.00419797 -14.52905207 25.28775214 -16.26171875 15.44921875 C-16.52713502 12.37300061 -16.5631592 10.00687781 -15.8125 7 C-11.53048402 2.56311907 -6.11501441 -1.60393821 0 0 Z " fill="#FDFDFE" transform="translate(263.8125,71)"/>
<path d="M0 0 C0.58378418 0.12117187 1.16756836 0.24234375 1.76904297 0.3671875 C4.46906023 0.92158394 7.1719012 1.46083744 9.875 2 C10.7928125 2.19078125 11.710625 2.3815625 12.65625 2.578125 C20.23226645 4.0719874 28.42127757 5.5161625 35.8125 2.5625 C38.86453289 1.37718891 41.77265026 0.58013442 45 0 C44.6390625 0.58007812 44.278125 1.16015625 43.90625 1.7578125 C40.06698786 7.95239797 40.06698786 7.95239797 40 15 C42.1925626 19.58366433 44.13688129 23.07345682 49 25 C50.99110401 25.38290462 52.99100513 25.72604615 55 26 C47.76535445 33.23464555 35.18737731 33.5293798 25.625 33.5625 C11.90044887 33.4126171 -0.67352778 31.27529495 -13 25 C-12.70867187 24.48953125 -12.41734375 23.9790625 -12.1171875 23.453125 C-8.52160222 17.07604922 -5.23919826 10.56388856 -2 4 C-1.33387386 2.66639654 -0.66730635 1.3330133 0 0 Z " fill="#123CB5" transform="translate(348,148)"/>
<path d="M0 0 C5.78762733 0.40614929 10.50177682 1.11672379 15 5 C20.36483316 11.28271022 19.46905534 19.22076142 19 27 C18.75170228 30.02434759 18.41483331 32.99245853 18 36 C16.92250488 35.79105103 16.92250488 35.79105103 15.82324219 35.57788086 C-8.00344842 31.24348369 -27.4136644 34.03394452 -48.57421875 45.23046875 C-54.55568253 48.32009599 -54.55568253 48.32009599 -57 49 C-58.96484375 48.3125 -58.96484375 48.3125 -60.9375 47 C-64.9113515 44.56893791 -68.97097257 42.57834736 -73.25 40.75 C-74.41015625 40.24984375 -75.5703125 39.7496875 -76.765625 39.234375 C-82.74282117 36.95322284 -88.47955416 36.72557584 -94.8125 36.4375 C-95.69615234 36.39431641 -96.57980469 36.35113281 -97.49023438 36.30664062 C-99.65999623 36.20108464 -101.8299791 36.10008929 -104 36 C-100.375 30.125 -100.375 30.125 -97 29 C-94.58660849 29.69330156 -92.28757664 30.44618803 -89.9375 31.3125 C-69.12247447 38.93092957 -46.60669416 38.60400166 -26.39208984 29.27099609 C-20.55183719 26.16787757 -16.31450156 21.97883259 -12 17 C-10.96552734 15.92878906 -10.96552734 15.92878906 -9.91015625 14.8359375 C-5.69781388 10.36533312 -2.74962858 5.47391497 0 0 Z " fill="#FBFCFE" transform="translate(433,144)"/>
<path d="M0 0 C14.09145124 7.26653183 23.33864517 21.40560832 28.6796875 35.9765625 C28.6796875 36.9665625 28.6796875 37.9565625 28.6796875 38.9765625 C17.15661811 40.68368389 1.82762096 42.81961342 -8.3203125 35.9765625 C-18.06190622 27.96766332 -21.21059821 14.89730586 -23.3203125 2.9765625 C-23.3203125 1.9865625 -23.3203125 0.9965625 -23.3203125 -0.0234375 C-17.21111523 -3.07803613 -6.38965529 -1.96951728 0 0 Z " fill="#FCFDFE" transform="translate(347.3203125,210.0234375)"/>
<path d="M0 0 C9.3204401 9.07398616 14.7842838 26.6118396 15.24609375 39.29296875 C15.28718473 42.86746898 15.18231494 46.42966567 15 50 C14.67 50 14.34 50 14 50 C14 47.03 14 44.06 14 41 C12.72125 41.20496094 11.4425 41.40992188 10.125 41.62109375 C8.41667778 41.89329894 6.70834382 42.16543043 5 42.4375 C4.16082031 42.57220703 3.32164062 42.70691406 2.45703125 42.84570312 C1.62558594 42.97783203 0.79414063 43.10996094 -0.0625 43.24609375 C-1.3 43.44307861 -1.3 43.44307861 -2.5625 43.64404297 C-4.89310424 43.98438962 -7.21961495 44.23470699 -9.5625 44.47265625 C-10.696875 44.64667969 -11.83125 44.82070312 -13 45 C-13.33 45.66 -13.66 46.32 -14 47 C-14.09796875 46.18917969 -14.1959375 45.37835938 -14.296875 44.54296875 C-16.1383598 30.90645632 -20.41006619 20.00537734 -29.21875 9.3046875 C-31 7 -31 7 -31 5 C-27.79199093 4.35254908 -24.58353661 3.70733107 -21.375 3.0625 C-20.47136719 2.88009766 -19.56773437 2.69769531 -18.63671875 2.50976562 C-3.72185881 -0.48409312 -3.72185881 -0.48409312 0 0 Z " fill="#1B7DE1" transform="translate(485,205)"/>
<path d="M0 0 C-0.33 1.98 -0.66 3.96 -1 6 C0.27230469 6.02126953 0.27230469 6.02126953 1.5703125 6.04296875 C10.42947251 6.40317635 22.37290063 7.37290063 29 14 C29.17944336 16.49926758 29.17944336 16.49926758 29.08984375 19.64453125 C29.06986328 20.79759766 29.04988281 21.95066406 29.02929688 23.13867188 C28.96916937 25.54505138 28.90424529 27.95131693 28.83398438 30.35742188 C28.71538089 37.76400493 29.46096588 44.21341859 31.44360352 51.36206055 C32 54 32 54 31 57 C30.25556641 55.91332031 30.25556641 55.91332031 29.49609375 54.8046875 C21.35770283 43.22253723 13.72586794 37.50447692 0 34 C0.639375 33.21625 1.27875 32.4325 1.9375 31.625 C5.31928456 27.32091057 5.46933842 24.23540382 5.3984375 18.83984375 C4.85990699 15.00149394 3.65140373 12.93082955 0.890625 10.25390625 C-2.66475983 7.89589276 -5.80462482 7.55214205 -10 8 C-20.04633493 10.37748763 -28.82496301 15.36123439 -34.72265625 23.921875 C-37.87908198 29.05709973 -40.26399771 34.21332571 -42 40 C-44.64 40 -47.28 40 -50 40 C-48.80355656 28.11034336 -41.73822367 17.89443448 -33 10 C-23.04016441 2.59678362 -12.32477307 -0.30811933 0 0 Z " fill="#0A2E89" transform="translate(239,222)"/>
<path d="M0 0 C3.6255494 1.63930344 6.6588941 3.85762777 9.875 6.1875 C19.15667514 12.7463025 29.05930657 17.79324503 40 21 C39.21625 21.9075 38.4325 22.815 37.625 23.75 C34.67605153 27.19865096 31.73626122 30.65497114 28.8125 34.125 C27.97332031 35.11757813 27.13414062 36.11015625 26.26953125 37.1328125 C24.26040345 39.67102215 22.58388352 42.18306059 21 45 C7.15781779 41.29227262 -4.93873016 32.8615855 -16 24 C-15.06315933 19.2323028 -12.4131701 16.08228585 -9.5625 12.25 C-9.05912109 11.55261719 -8.55574219 10.85523438 -8.03710938 10.13671875 C-7.55177734 9.47800781 -7.06644531 8.81929688 -6.56640625 8.140625 C-6.12240479 7.53766602 -5.67840332 6.93470703 -5.22094727 6.31347656 C-4.61657837 5.66330566 -4.61657837 5.66330566 -4 5 C-3.34 5 -2.68 5 -2 5 C-1.34 3.35 -0.68 1.7 0 0 Z " fill="#11A1E9" transform="translate(152,284)"/>
<path d="M0 0 C1.40234375 1.3984375 1.40234375 1.3984375 2.9375 3.375 C7.64605526 9.01723466 13.28713406 13.42348069 19 18 C19.94617188 18.75796875 20.89234375 19.5159375 21.8671875 20.296875 C22.57101563 20.85890625 23.27484375 21.4209375 24 22 C22.36804688 22.67482422 22.36804688 22.67482422 20.703125 23.36328125 C5.40894966 29.95358207 -6.98016676 39.40037057 -14 55 C-20.10720346 49.91066378 -22.50877499 44.06835074 -23.45703125 36.21484375 C-24.09766261 25.45405611 -21.66872109 17.43215976 -14.515625 9.109375 C-5.71857143 0 -5.71857143 0 0 0 Z " fill="#FCFDFE" transform="translate(129,151)"/>
<path d="M0 0 C4.10070368 1.36690123 4.66006323 3.36472401 6.8125 7.0625 C9.59836197 11.79360063 12.52956589 16.20660046 16.06640625 20.4140625 C16.37449219 20.93742187 16.68257812 21.46078125 17 22 C15.84433805 25.46698585 14.75645728 25.84412827 11.8125 27.7265625 C1.48244187 34.98431886 -2.81376415 44.87632847 -5 57 C-6.52795352 54.70806972 -7.58015694 52.78272683 -8.6875 50.3125 C-12.85872912 41.95470635 -19.08929169 36.73566212 -27 32 C-26.4732696 27.42933943 -24.49429869 24.28633918 -21.875 20.625 C-21.46757568 20.04991699 -21.06015137 19.47483398 -20.64038086 18.88232422 C-15.09393115 11.19794258 -8.45771488 4.49500931 0 0 Z " fill="#123CB5" transform="translate(110,127)"/>
<path d="M0 0 C9.47238584 2.56010428 17.41964509 7.98440999 24.80859375 14.265625 C26.81388793 15.85270275 28.67381544 16.96143013 31 18 C31.74765625 17.37351563 32.4953125 16.74703125 33.265625 16.1015625 C34.25046875 15.28429687 35.2353125 14.46703125 36.25 13.625 C37.22453125 12.81289062 38.1990625 12.00078125 39.203125 11.1640625 C41.4552682 9.42148243 43.40711386 8.123584 46 7 C49.48240241 12.01875641 52.06257853 17.11883812 54.375 22.75 C54.64973145 23.39976807 54.92446289 24.04953613 55.20751953 24.71899414 C56.56804974 28.13266408 57.49676523 30.51341747 56 34 C55.21625 33.360625 54.4325 32.72125 53.625 32.0625 C49.66675915 28.95245362 47.24787595 28.66336593 42.32421875 28.7109375 C38.78520095 29.15108425 36.66974395 30.72095029 34 33 C30.2961472 38.5557792 31.44733624 46.46485768 32.453125 52.8984375 C32.80577702 54.53575045 33.17197998 56.17023162 33.5546875 57.80078125 C34.18762261 60.92659236 34.13817741 63.82191957 34 67 C30.68929162 68.00109515 27.69915231 68.10356134 24.25 68.0625 C23.26515625 68.05347656 22.2803125 68.04445313 21.265625 68.03515625 C20.51796875 68.02355469 19.7703125 68.01195312 19 68 C19.28875 67.16597656 19.5775 66.33195312 19.875 65.47265625 C22.88058074 56.36198964 24.74408398 49.12620469 21 40 C23.64 39.67 26.28 39.34 29 39 C23.1503911 23.93596291 15.87432609 10.64040532 1.65234375 2.05859375 C1.10707031 1.70925781 0.56179688 1.35992187 0 1 C0 0.67 0 0.34 0 0 Z " fill="#133DB5" transform="translate(347,210)"/>
<path d="M0 0 C11.21700315 3.82612166 20.7700502 10.26544144 29.03271484 18.69335938 C28.25927734 19.16644531 27.48583984 19.63953125 26.68896484 20.12695312 C19.62177805 24.61391702 14.3142234 29.24101037 9.03271484 35.69335938 C8.04628765 36.70675041 7.051115 37.71210451 6.03271484 38.69335938 C5.54802734 37.7265625 5.06333984 36.75976562 4.56396484 35.76367188 C0.42696934 27.67090877 -3.99213952 20.5974142 -9.96728516 13.69335938 C-10.58732422 12.87480469 -11.20736328 12.05625 -11.84619141 11.21289062 C-14.21467051 8.39950385 -16.7663004 6.27731134 -19.65478516 4.00585938 C-24.86346002 -0.09899035 -24.86346002 -0.09899035 -25.96728516 -2.30664062 C-18.39805419 -6.09125611 -7.64844258 -2.34227923 0 0 Z " fill="#FBFCFE" transform="translate(324.96728515625,59.306640625)"/>
<path d="M0 0 C3.375 1.9375 3.375 1.9375 6 4 C6.99 4.33 7.98 4.66 9 5 C9.12375 5.721875 9.2475 6.44375 9.375 7.1875 C9.89068314 9.95818104 9.89068314 9.95818104 11 12.21875 C12.22669922 15.6305072 12.42230186 18.69771646 12.625 22.3125 C12.69976562 23.56675781 12.77453125 24.82101562 12.8515625 26.11328125 C12.90054687 27.06589844 12.94953125 28.01851563 13 29 C12.35933594 29.18175781 11.71867187 29.36351562 11.05859375 29.55078125 C7.11522533 30.6967676 3.33160378 31.85530017 -0.4375 33.5 C-5.17068905 35.4929217 -10.03098549 36.73303608 -15 38 C-20.40740741 13.21604938 -20.40740741 13.21604938 -17.015625 5.8671875 C-12.53099177 0.13682282 -6.88170205 -1.01552895 0 0 Z " fill="#187BE0" transform="translate(396,238)"/>
<path d="M0 0 C3.0335689 6.30982332 3.0335689 6.30982332 2.90234375 9.0078125 C1.59141142 11.90207868 -0.35736187 12.89994455 -3 14.625 C-13.03896453 21.67308131 -19.25965894 30.25762541 -25 41 C-29.3972938 40.21775257 -32.94559445 38.82845741 -37 37 C-37.77084 26.93625561 -35.1739299 18.71851834 -28.8203125 10.81640625 C-21.30077552 3.31300561 -10.53981337 -0.68737913 0 0 Z " fill="#FCFDFE" transform="translate(108,117)"/>
<path d="M0 0 C1.0003125 0.16371094 2.000625 0.32742187 3.03125 0.49609375 C9.81890654 1.34455082 16.67233208 1.10499253 23.5 1.0625 C24.90885258 1.05747533 26.31770689 1.05291413 27.7265625 1.04882812 C31.15108638 1.0371003 34.57552047 1.02068691 38 1 C37.5987793 1.71430176 37.19755859 2.42860352 36.78417969 3.16455078 C33.92360711 8.31999215 31.26714372 13.3347628 29.25 18.875 C28.86328125 19.92429688 28.4765625 20.97359375 28.078125 22.0546875 C27.72234375 23.02664062 27.3665625 23.99859375 27 25 C26.33957724 26.66915068 25.67512357 28.33674103 25 30 C23.45797384 29.54287762 21.91639786 29.08423653 20.375 28.625 C19.51648438 28.36976563 18.65796875 28.11453125 17.7734375 27.8515625 C15.87619611 27.26902923 13.99311564 26.63883496 12.125 25.96875 C8.62807169 24.88470222 5.2527502 24.35413682 1.625 23.875 C0.37976563 23.70742187 -0.86546875 23.53984375 -2.1484375 23.3671875 C-3.08945313 23.24601562 -4.03046875 23.12484375 -5 23 C-4.72285156 21.84242188 -4.44570312 20.68484375 -4.16015625 19.4921875 C-3.79416563 17.95315001 -3.42828609 16.41408611 -3.0625 14.875 C-2.88009766 14.11445313 -2.69769531 13.35390625 -2.50976562 12.5703125 C-1.52009827 8.39571566 -0.64427021 4.24540161 0 0 Z " fill="#FBFCFE" transform="translate(243,205)"/>
<path d="M0 0 C16.59202142 -0.57580427 30.91471777 -0.75359421 44 11 C44 11.66 44 12.32 44 13 C43.20335937 12.95359375 42.40671875 12.9071875 41.5859375 12.859375 C34.80246054 12.61111953 34.80246054 12.61111953 28.4375 14.6875 C23.1028512 19.74857707 22.96916342 22.24669264 22 30 C16.39 29.34 10.78 28.68 5 28 C4.89042969 26.6490625 4.78085937 25.298125 4.66796875 23.90625 C4.50840464 22.10411414 4.34821507 20.30203358 4.1875 18.5 C4.08211914 17.1696875 4.08211914 17.1696875 3.97460938 15.8125 C3.44467641 10.04682939 2.27273166 5.33002274 0 0 Z " fill="#103BB5" transform="translate(404,245)"/>
<path d="M0 0 C9.74909679 0.12060738 18.82152244 2.60184874 27.8125 6.375 C25.84697457 8.99570058 24.06812851 11.18327861 21.4375 13.15625 C18.43377171 15.69511558 16.61916382 18.32054117 14.5 21.625 C13.80261719 22.70265625 13.10523438 23.7803125 12.38671875 24.890625 C11.86722656 25.71046875 11.34773438 26.5303125 10.8125 27.375 C10.03648437 27.04886719 9.26046875 26.72273438 8.4609375 26.38671875 C0.2892823 23.08100143 -7.5076615 20.97562989 -16.1875 19.375 C-15.59968645 15.01873792 -13.99402583 11.94309417 -11.75 8.1875 C-11.13253906 7.14207031 -10.51507813 6.09664063 -9.87890625 5.01953125 C-6.8992991 0.3608845 -5.43342898 0.06139468 0 0 Z " fill="#0A2D88" transform="translate(188.1875,71.625)"/>
<path d="M0 0 C0.72960937 0.62261719 1.45921875 1.24523438 2.2109375 1.88671875 C2.94570313 2.50160156 3.68046875 3.11648437 4.4375 3.75 C5.50097656 4.65298828 5.50097656 4.65298828 6.5859375 5.57421875 C7.33617187 6.08339844 8.08640625 6.59257813 8.859375 7.1171875 C9.42914063 7.59800781 9.99890625 8.07882813 10.5859375 8.57421875 C10.5859375 9.56421875 10.5859375 10.55421875 10.5859375 11.57421875 C9.46058594 11.79464844 9.46058594 11.79464844 8.3125 12.01953125 C0.56066982 13.71829504 -7.53500503 16.12967209 -12.94140625 22.32421875 C-13.42738281 22.73671875 -13.91335938 23.14921875 -14.4140625 23.57421875 C-18.608054 22.87440135 -22.10715809 20.72136704 -25.7890625 18.69921875 C-27.08813909 17.99274881 -28.38761356 17.28700998 -29.6875 16.58203125 C-30.31108398 16.24333008 -30.93466797 15.90462891 -31.57714844 15.55566406 C-34.16271152 14.17422286 -36.78416853 12.86881052 -39.4140625 11.57421875 C-31.37474195 4.61682546 -10.36747501 -6.12318508 0 0 Z " fill="#0A2E88" transform="translate(300.4140625,58.42578125)"/>
<path d="M0 0 C0.53414112 1.89212702 1.05178329 3.78891636 1.5625 5.6875 C1.85253906 6.74324219 2.14257812 7.79898438 2.44140625 8.88671875 C3.00947823 12.05282623 3.0366774 13.97012327 2 17 C0.57480639 17.92803305 -0.85477002 18.85052285 -2.3125 19.7265625 C-8.05619779 24.06092704 -10.66498263 30.99329625 -12.359375 37.73828125 C-13.00239001 40.0084379 -13.88128177 41.92847515 -15 44 C-19.5789192 37.2817497 -23.1365798 30.47408651 -24.6875 22.4375 C-23.14531448 14.72657242 -16.29246661 8.40472663 -10 4 C-3.14641745 0 -3.14641745 0 0 0 Z " fill="#0B2E88" transform="translate(324,210)"/>
<path d="M0 0 C12.73745973 3.19569719 12.73745973 3.19569719 17 6 C18.12466749 9.0740065 18.07974026 11.93863348 17.9921875 15.18359375 C17.97357666 16.18817627 17.95496582 17.19275879 17.93579102 18.2277832 C17.91572998 19.28698975 17.89566895 20.34619629 17.875 21.4375 C17.77654807 29.61879395 18.05346059 36.84273021 20.44140625 44.70703125 C21 47 21 47 20 50 C19.50371094 49.27554688 19.00742187 48.55109375 18.49609375 47.8046875 C12.93448104 39.8896789 7.9786726 33.94185626 -1 30 C-0.52269162 28.5410574 -0.04308958 27.08286504 0.4375 25.625 C0.70433594 24.81289062 0.97117188 24.00078125 1.24609375 23.1640625 C2 21 2 21 3 19 C3.76082218 12.21112518 2.2343819 6.3706484 0 0 Z " fill="#123CB5" transform="translate(250,229)"/>
<path d="M0 0 C1.68076231 0.63028587 3.34302621 1.30959426 5 2 C5.68578125 2.15210938 6.3715625 2.30421875 7.078125 2.4609375 C9.76275567 3.28177781 11.10481423 3.89522898 13 6 C13.72849327 10.01802502 13.82201805 13.85825618 13.87109375 17.9296875 C13.97331842 24.93613376 15.82374073 30.44720834 20 36 C20 36.66 20 37.32 20 38 C13.54912458 37.59042061 7.38485522 36.86783149 2 33 C0.5 29.5 0.5 29.5 0 26 C-0.17273438 25.40703125 -0.34546875 24.8140625 -0.5234375 24.203125 C-2.19020015 16.49776322 -1.2380302 7.73768877 0 0 Z " fill="#0B2F89" transform="translate(138,223)"/>
<path d="M0 0 C2.7202359 1.73105921 4.79981153 3.17575122 6.75 5.75 C6.5 8 6.5 8 5.75 9.75 C4.96625 9.110625 4.1825 8.47125 3.375 7.8125 C-0.58324085 4.70245362 -3.00212405 4.41336593 -7.92578125 4.4609375 C-11.46479905 4.90108425 -13.58025605 6.47095029 -16.25 8.75 C-19.9538528 14.3057792 -18.80266376 22.21485768 -17.796875 28.6484375 C-17.44422298 30.28575045 -17.07802002 31.92023162 -16.6953125 33.55078125 C-16.06237739 36.67659236 -16.11182259 39.57191957 -16.25 42.75 C-19.56070838 43.75109515 -22.55084769 43.85356134 -26 43.8125 C-26.98484375 43.80347656 -27.9696875 43.79445313 -28.984375 43.78515625 C-29.73203125 43.77355469 -30.4796875 43.76195312 -31.25 43.75 C-30.96125 42.91597656 -30.6725 42.08195312 -30.375 41.22265625 C-27.36941926 32.11198964 -25.50591602 24.87620469 -29.25 15.75 C-25.29 15.255 -25.29 15.255 -21.25 14.75 C-21.1675 13.71875 -21.085 12.6875 -21 11.625 C-19.99219234 6.41799373 -18.07045831 3.26704859 -14 -0.125 C-9.00284282 -2.16929157 -4.90518178 -1.88660838 0 0 Z " fill="#0A2E8A" transform="translate(397.25,234.25)"/>
<path d="M0 0 C4.46425061 2.06533693 7.21541404 4.87215768 10 8.875 C12.23333694 15.85417793 10.8015598 21.38899132 8.7890625 28.20703125 C8.05112448 30.81903959 7.49410269 33.39518293 7 36.0625 C5.08573549 45.86538681 1.68668363 54.17265413 -3 63 C-3.33 63 -3.66 63 -4 63 C-4.4037968 58.85792818 -4.70999958 54.71396762 -5 50.5625 C-5.11472656 49.39783203 -5.22945313 48.23316406 -5.34765625 47.03320312 C-5.88178424 38.41431965 -5.88178424 38.41431965 -3.28515625 34.24951172 C-1.28880023 32.02256394 0.79840906 30.02005915 3 28 C6.22215671 23.16676494 6.91673361 18.68374839 6 13 C3.80794622 8.61589244 1.56884617 5.86907343 -3 4 C-6.83878984 3.44831763 -9.99720845 3.36665797 -13.375 5.5 C-13.91125 5.995 -14.4475 6.49 -15 7 C-15.66 7 -16.32 7 -17 7 C-16.64102815 4.39745411 -16.24337394 3.23097989 -14.3125 1.3984375 C-9.89117463 -1.2752694 -4.97026723 -0.78276936 0 0 Z " fill="#0A2F8A" transform="translate(316,92)"/>
<path d="M0 0 C-0.14230808 1.41702513 -0.28900746 2.8336096 -0.4375 4.25 C-0.51871094 5.03890625 -0.59992188 5.8278125 -0.68359375 6.640625 C-1 9 -1 9 -1.51367188 10.7265625 C-2.16297032 13.76183718 -2.11126722 16.63107488 -2.09765625 19.734375 C-2.09282227 21.67763672 -2.09282227 21.67763672 -2.08789062 23.66015625 C-2.07953598 25.02343817 -2.07107104 26.38671942 -2.0625 27.75 C-2.05748168 29.12890465 -2.05291935 30.50781104 -2.04882812 31.88671875 C-2.03704093 35.25785659 -2.02058635 38.62890628 -2 42 C-3.44463272 41.86865265 -4.88851573 41.72904155 -6.33203125 41.5859375 C-7.5382312 41.47064697 -7.5382312 41.47064697 -8.76879883 41.35302734 C-12.29638574 40.79488196 -13.63349358 39.68630458 -16 37 C-22 27.29665072 -22 27.29665072 -22 24 C-18.7 24.99 -15.4 25.98 -12 27 C-12.12375 25.6696875 -12.12375 25.6696875 -12.25 24.3125 C-12.21918206 16.74669631 -9.72313418 8.52189677 -4.875 2.6875 C-2 0 -2 0 0 0 Z " fill="#0A2D89" transform="translate(197,115)"/>
<path d="M0 0 C4.00255838 2.11455915 6.36245253 3.77481854 8 8 C8.32592984 12.67166102 7.59286595 16.13764953 4.9375 20 C1.27711458 22.49217731 -1.57204908 23.44279509 -6 23 C-10.39821006 20.84238752 -13.06161989 18.52288692 -15 14 C-15.64133086 10.72208672 -15.60542686 8.90166018 -13.72265625 6.09765625 C-9.38353621 0.90980858 -7.02427695 -0.58535641 0 0 Z " fill="#011535" transform="translate(356,436)"/>
<path d="M0 0 C8.10929252 2.28073852 14.69979197 10.02534112 19.69140625 16.45703125 C21 19 21 19 20.90234375 21.32421875 C20.09419726 23.65119333 19.06695848 25.78134265 18 28 C17.55800568 29.67600158 17.16007897 31.36440426 16.8125 33.0625 C16.65394531 33.81660156 16.49539062 34.57070312 16.33203125 35.34765625 C16.16767578 36.16556641 16.16767578 36.16556641 16 37 C14.47204648 34.70806972 13.41984306 32.78272683 12.3125 30.3125 C8.14127088 21.95470635 1.91070831 16.73566212 -6 12 C-5.45897018 8.39935329 -4.64824474 6.0784739 -2.4375 3.1875 C-1.98246094 2.58292969 -1.52742188 1.97835937 -1.05859375 1.35546875 C-0.53458984 0.68451172 -0.53458984 0.68451172 0 0 Z " fill="#0A2E89" transform="translate(89,147)"/>
<path d="M0 0 C0.66 0.33 1.32 0.66 2 1 C1.360625 1.639375 0.72125 2.27875 0.0625 2.9375 C-2.62971784 6.93503558 -3.4792833 10.19119084 -3 15 C-1.45932402 18.82557679 0.38502905 22.03101743 3.97265625 24.18359375 C6.60296154 25.2428111 9.19938622 25.61809812 12 26 C9.66496157 28.33503843 7.76960812 29.03223079 4.6875 30.1875 C3.74261719 30.55230469 2.79773438 30.91710937 1.82421875 31.29296875 C-1.2719689 32.06808627 -2.97620917 31.93788766 -6 31 C-10.30987091 28.26691113 -13.2962221 24.82737072 -15 20 C-15.67564538 15.2629752 -15.31866757 11.16844776 -14.0625 6.5625 C-11.04401459 2.81226055 -7.54473995 2.14441821 -3 1 C-2.01 0.67 -1.02 0.34 0 0 Z " fill="#0B2E89" transform="translate(391,148)"/>
<path d="M0 0 C4.10070368 1.36690123 4.66006323 3.36472401 6.8125 7.0625 C9.59836197 11.79360063 12.52956589 16.20660046 16.06640625 20.4140625 C16.37449219 20.93742187 16.68257812 21.46078125 17 22 C15.64486335 26.06540996 13.69203082 26.97300269 10 29 C6.94530874 29.0925664 5.96798857 27.973043 3.625 26 C-1.01929744 20.6922315 -7 13.83630063 -7 6.4375 C-5.53590107 2.86875887 -3.35504348 1.74462261 0 0 Z " fill="#0A2E88" transform="translate(110,127)"/>
<path d="M0 0 C7.30770082 -1.02307811 12.25698793 1.80718025 18.53515625 5.17578125 C21.97583049 6.9872749 25.41067651 8.51397435 29 10 C29 12.97 29 15.94 29 19 C23.26412232 18.89177589 20.26641637 17.70749287 15.5625 14.375 C11.73106256 11.74757572 9.48200556 10.49716678 4.8125 11.0625 C3.554375 11.371875 2.29625 11.68125 1 12 C0.67 8.04 0.34 4.08 0 0 Z " fill="#092D88" transform="translate(213,195)"/>
<path d="M0 0 C2.31 0.66 4.62 1.32 7 2 C7.13886298 11.72040851 3.72469366 18.77810663 -1 27 C-1.33 27.33 -1.66 27.66 -2 28 C-9.40664557 27.5221519 -9.40664557 27.5221519 -11.7578125 25.453125 C-12.37269531 24.73382813 -12.37269531 24.73382813 -13 24 C-12.48050781 23.18917969 -11.96101563 22.37835938 -11.42578125 21.54296875 C-7.02756806 14.55948422 -3.1847829 7.64041668 0 0 Z " fill="#0B2E89" transform="translate(348,148)"/>
<path d="M0 0 C2.33524782 2.25740623 4.18705073 4.2805761 6 7 C5.75 9.18359375 5.75 9.18359375 5 12 C4.690625 13.24910156 4.38125 14.49820313 4.0625 15.78515625 C3.89008789 16.47552979 3.71767578 17.16590332 3.54003906 17.87719727 C1.63516934 25.58537486 0.30692306 33.03534655 0 41 C-5.09885387 37.35056652 -9.77383466 33.64878188 -14 29 C-14 28.34 -14 27.68 -14 27 C-12.6696875 26.443125 -12.6696875 26.443125 -11.3125 25.875 C-6.46347588 23.13026937 -3.7860208 20.00435305 -1.75 14.8125 C-0.78255978 9.89467887 -0.34331038 4.99606952 0 0 Z " fill="#0C308B" transform="translate(108,198)"/>
<path d="M0 0 C2.0625 0.4375 2.0625 0.4375 4 1 C3.98428955 1.74983154 3.9685791 2.49966309 3.95239258 3.2722168 C3.88916439 6.74389786 3.85073435 10.21545713 3.8125 13.6875 C3.78736328 14.86634766 3.76222656 16.04519531 3.73632812 17.25976562 C3.67534369 24.67953801 4.46797211 31.20704863 6.44799805 38.36645508 C7 41 7 41 6 44 C4.70462174 42.2527456 3.41383727 40.50208483 2.125 38.75 C1.40570313 37.77546875 0.68640625 36.8009375 -0.0546875 35.796875 C-3.92617986 30.23063297 -4.33827454 26.46748691 -4.3125 19.8125 C-4.32861328 18.99974609 -4.34472656 18.18699219 -4.36132812 17.34960938 C-4.36601242 11.46145239 -3.33897631 6.41969175 -1 1 C-0.67 0.67 -0.34 0.34 0 0 Z " fill="#0B2E8A" transform="translate(264,235)"/>
<path d="M0 0 C2.60623288 1.35625323 4.92182245 2.91550581 7 5 C7 5.66 7 6.32 7 7 C6.20335937 6.95359375 5.40671875 6.9071875 4.5859375 6.859375 C-2.19753946 6.61111953 -2.19753946 6.61111953 -8.5625 8.6875 C-13.57981329 13.44751518 -14.43377937 17.31859659 -15 24 C-17.31 23.67 -19.62 23.34 -22 23 C-22.72013904 16.37472086 -20.7226431 11.48648896 -17 6 C-11.9772114 1.17504552 -6.9267627 -0.69267627 0 0 Z " fill="#0C2F8A" transform="translate(441,251)"/>
<path d="M0 0 C9.47238584 2.56010428 17.41964509 7.98440999 24.80859375 14.265625 C26.81388793 15.85270275 28.67381544 16.96143013 31 18 C31.74765625 17.37351563 32.4953125 16.74703125 33.265625 16.1015625 C34.25046875 15.28429687 35.2353125 14.46703125 36.25 13.625 C37.22453125 12.81289062 38.1990625 12.00078125 39.203125 11.1640625 C41.4552682 9.42148243 43.40711386 8.123584 46 7 C48 9 48 9 48 12 C46.05859375 13.32421875 46.05859375 13.32421875 43.4375 14.6875 C38.73387511 17.33620791 35.67625163 20.22327314 32.375 24.4609375 C31.92125 24.96882813 31.4675 25.47671875 31 26 C30.34 26 29.68 26 29 26 C27.825989 24.52410046 26.65227811 23.04796067 25.48046875 21.5703125 C23.55698268 19.53009772 21.27625835 18.4625339 18.80859375 17.18359375 C16.65478457 15.77408148 15.31277849 14.17990022 13.6875 12.1875 C10.2853571 8.03968195 6.41131253 5.27208078 1.94140625 2.34765625 C1.30074219 1.90292969 0.66007812 1.45820313 0 1 C0 0.67 0 0.34 0 0 Z " fill="#0D318C" transform="translate(347,210)"/>
<path d="M0 0 C0.33 0 0.66 0 1 0 C1.33416583 5.77195523 0.25524588 10.11090169 -1.75 15.5 C-2.00265625 16.22058594 -2.2553125 16.94117188 -2.515625 17.68359375 C-4.23853326 22.44743509 -6.37724189 26.66674748 -9 31 C-9.33 31 -9.66 31 -10 31 C-10.33 23.74 -10.66 16.48 -11 9 C-10.34 9.66 -9.68 10.32 -9 11 C-7.68485396 9.54405245 -6.37296283 8.08516421 -5.0625 6.625 C-4.33160156 5.81289062 -3.60070312 5.00078125 -2.84765625 4.1640625 C-0.97010529 2.14075833 -0.97010529 2.14075833 0 0 Z " fill="#0A318C" transform="translate(322,124)"/>
<path d="M0 0 C0.64066406 0.19335938 1.28132813 0.38671875 1.94140625 0.5859375 C6.95110985 2.0940748 11.96539857 3.57717786 17 5 C17 5.99 17 6.98 17 8 C9.74 7.67 2.48 7.34 -5 7 C-1 1 -1 1 0 0 Z " fill="#E6F2FB" transform="translate(334,173)"/>
<path d="M0 0 C0.33 0 0.66 0 1 0 C1.36723026 4.20740956 1.36275178 6.41631298 -0.8984375 10.0546875 C-1.71570313 10.98539063 -2.53296875 11.91609375 -3.375 12.875 C-4.18710937 13.82117188 -4.99921875 14.76734375 -5.8359375 15.7421875 C-8 18 -8 18 -10 19 C-10.33 15.7 -10.66 12.4 -11 9 C-10.34 9.66 -9.68 10.32 -9 11 C-7.68485396 9.54405245 -6.37296283 8.08516421 -5.0625 6.625 C-4.33160156 5.81289062 -3.60070312 5.00078125 -2.84765625 4.1640625 C-0.97010529 2.14075833 -0.97010529 2.14075833 0 0 Z " fill="#1541B4" transform="translate(322,124)"/>
</svg>
