<svg xmlns="http://www.w3.org/2000/svg" width="500" height="500" xmlns:v="https://vecta.io/nano"><path d="M301.129 26.84C327.105 26.16 351.551 36.021 371 53l4.125 4.813c4.724 4.95 9.984 5.913 16.434 7.381 19.553 4.465 38.613 15.14 49.847 32.123 3.402 5.729 6.339 11.716 8.934 17.852 1.964 3.351 3.499 4.247 6.973 5.895 11.437 5.846 17.808 14.235 21.961 26.297 1.67 6.069 1.919 11.888 1.914 18.141l.002 2.668a111.81 111.81 0 0 1-1.752 18.886c-.991 6.069-.991 6.069 1.25 11.594l2.313 2.727c13.361 16.7 18.996 36.389 17 57.625-2.153 15.526-10.98 32.085-22.801 42.602-5.161 4.604-6.351 8.199-7.199 14.96-2.533 15.441-9.04 27.807-21.875 37.188-16.693 11.01-36.076 15.123-55.78 11.123-11.171-2.576-20.627-7.016-29.505-14.357-1.973-1.677-1.973-1.677-4.84-3.516l.289 2.098c2.037 17.978-2.595 33.435-13.289 47.902-7.69 9.274-17.729 15.064-29 19 1.874 5.621 8.354 7.634 13.383 10.23 2.311.987 4.105 1.62 6.617 1.77 2.366-.971 4.162-2.133 6.176-3.703 4.293-3.052 9.767-2.85 14.824-2.297 7.116 1.801 12.683 4.999 17 11 3.925 7.035 5.378 13.699 3.34 21.539-2.62 7.509-6.719 12.122-13.34 16.398-6.924 2.512-16.746 2.536-23.5-.437-6.781-4.211-10.884-10.035-13.09-17.617C327 451 327 451 327 449l-2.148-.344c-14.61-3.362-26.11-14.335-33.852-26.656l-.98-2.273L289 418l-6.172-1.258c-13.673-3.588-27.678-13.399-34.92-25.579-8.685-15.696-11.607-30.296-7.908-48.163.633-2.011 1.289-4.015 2-6l-1.803.21c-35.151 3.838-70.976-2.973-99.197-25.21-3.457-2.882-6.754-5.884-10-9l-2.371-2.215C123.291 295.664 119.025 290.2 115 284l-3.375 1.188c-4.895 1.632-9.844 3.047-14.812 4.438l-2.339.661C75.522 295.539 55.636 293.994 38 285c-17.938-10.161-29.928-25.325-36-45-4.608-16.801-3.362-35.353 4.949-50.777C14.907 175.564 26.489 165.874 40 158h2l-.512-1.562c-2.567-12.815 2.323-26.665 8.629-37.645 9.85-14.611 24.616-25.909 41.789-30.301 6.005-.955 12.03-.713 18.094-.492l.746-2.637C116.358 70.31 130.692 59.858 144 52l2.219-1.312c20.503-11.12 45.86-10.728 67.719-4.312 5.315 1.595 10.341 3.399 15.203 6.121 2.812.762 4.311-.198 6.859-1.496a99.38 99.38 0 0 0 4.375-3.125c18.102-12.911 38.563-19.899 60.754-21.035zM299 58l2.055 1.582C314.221 69.995 323.726 81.884 331 97h2l2.75-4.223C340.258 86.367 346.416 82.076 353 78c-2.969-4.144-6.278-6.837-10.562-9.5l-1.87-1.178C330.421 61.049 310.693 50.621 299 58zm-47.883 18.012c-2.552 2.079-2.552 2.079-3.355 4.922-.277 9.346 2.628 16.955 8.473 24.246 4.874 5.025 10.813 8.703 17.766 9.82 7.688.095 12.018-2.135 17.59-7.488L299 100c-1.316-3.421-2.544-6.237-5-9h-2l-.75-1.789C287.33 82.278 277.841 77.652 271 74l-2.691-1.543c-7.601-3.687-10.92-1.731-17.191 3.555zM145.5 86.938c-7.322 7.797-7.322 7.797-10.187 17.813.857 14.055 13.284 27.674 23.375 36.625 6.803 5.414 14.429 9.043 22.313 12.625 0-4.132-1.934-7.054-3.812-10.625-7.897-15.385-11.541-32.467-6.5-49.5 2.279-6.28 4.874-12.699 8.965-18.027 1.544-1.736 1.544-1.736 1.348-3.848-13.344-.411-26.046 5.821-35.5 14.938zm63.043-1.504c-7.242 7.308-11.602 15.636-11.855 26.004-.061 3.742-.061 3.742 2.313 6.563l1.313-1.437c2.901-2.686 5.842-2.744 9.625-2.812l2.59-.078c2.948.391 4.208 1.47 6.473 3.328h2c1.574 4.158 2.216 7.451 2.055 11.887l-.074 3.346-.234 6.852c-.197 9.968 1.424 18.829 8.504 26.291 8.387 8.633 17.227 12.617 29.265 12.979 16.857.148 32.37-4.935 45.36-15.917 5.647-5.581 6.179-10.149 6.313-17.875-.074-4.933-.423-9.691-1.187-14.562l-1.984 1.355c-13.633 9.031-25.99 13.284-42.355 11.371-1.965-.44-3.772-1.024-5.66-1.727l-2.828-1c-7.038-2.688-12.564-5.992-18.172-11l-2.051-1.734C224.109 114.689 219.88 96.884 218 79c-3.899 0-6.725 3.914-9.457 6.434zM358.57 109.73c-4.572 6.608-6.281 13.523-7.258 21.395l-.354 2.59-.66 4.978L349 148c14.229 4.466 27.158 7.359 41.25.75 8.584-4.672 15.587-11.261 18.75-20.75.492-5.133.648-9.568-1.5-14.312-7.516-8.08-16.398-12.758-27.562-13.187-8.656.348-15.232 3.141-21.367 9.23zM81 127l-1.676 1.555c-5.658 5.868-8.549 13.506-8.574 21.633L71 154l11 4 1.801-2.895C91.065 143.677 98.882 133.63 111 127c-.562-3.934-1.496-6.87-4-10-9.372-1.008-19.337 3.687-26 10zm353 17c-1.794 2.139-3.294 4.179-4.812 6.5l-2.668 3.875-1.306 1.898c-9.421 13.405-22.236 19.889-37.956 23.613-3.093.513-6.132.882-9.258 1.113l-2.27.176c-11.118.392-21.966-1.841-32.364-5.587-3.815-1.328-6.541-2.126-10.367-.589-1.823 1.957-1.823 1.957-3 4l3.48.297c11.12 1.032 21.778 2.305 31.605 8.023 6.156 3.598 6.156 3.598 12.914 5.68 4.895-1.414 8.343-3.824 12.371-6.858 14.572-10.217 34.546-10.287 51.297-7.58 3.158.415 6.152.515 9.332.438 1.937-14.345 1.937-14.345-2-28-2.956-3.483-6.617-5.731-11-7h-4zm-318.785 15.742c-7.275 8.075-9.522 16-9.434 26.742.442 7.098 3.601 12.528 7.219 18.516h2c1.152-1.642 2.221-3.341 3.25-5.062 8.639-13.894 19.283-20.02 33.75-26.937-2.714-2.814-5.523-5.25-8.625-7.625-4.843-3.809-9.099-8.01-13.344-12.469-4.946-4.641-11.023 3.134-14.816 6.836zM43 192l-1.852 1.523c-7.196 6.499-11.535 15.55-12.387 25.168C28.43 231.516 32.491 241.419 41 251c10.667 9.944 22.89 12.609 37.063 12.313C89.427 262.785 99.386 258.996 109 253c.502-8.918.502-8.918-3.117-16.758-2.542-2.225-5.166-4.238-7.883-6.242l-2.562-2.937c-3.049-2.58-5.494-2.799-9.348-3.473-3.227-.911-4.443-2.776-6.09-5.59-.899-2.697-1.156-4.453-1.246-7.238l-.1-2.486-.172-5.141c-.254-6.122-.715-11.033-4.795-15.885-4.395-3.68-7.858-4.68-13.648-4.496-6.751.815-11.984 5.03-17.039 9.246zm125 6l-3.012.879c-9.184 2.994-17.632 7.864-22.988 16.121-1.228 2.646-2.118 5.208-3 8 15.485 9.166 31.258 14.89 49.547 11.305 10.063-2.759 16.765-7.088 22.266-16.012 3.854-7.441 3.929-15.228 2.188-23.293-22.745-.861-22.745-.861-45 3zm75 7l-.586 3.254-.789 4.309-.383 2.135c-.835 4.53-1.909 8.893-3.242 13.303l2.895.297c7.372.853 13.909 1.981 20.836 4.801 2.08.827 4.088 1.416 6.27 1.902l1.102-3.113c3.022-8.384 6.366-16.179 10.898-23.887l1-2-1.658.124c-12.397.878-24.059.824-36.342-1.124zm151 11c.637 4.5 2.4 8.271 4.375 12.313 2.469 5.159 4.748 10.278 6.625 15.688l3.191.078c16.484.573 30.769 3.165 42.559 15.672 3.842 4.636 6.559 9.888 9.25 15.25h2l3.938-7.75 1.131-2.211 1.084-2.148 1-1.968c3.808-8.636 2.089-18.025-.828-26.653-2.22-5.48-5.012-10.38-8.324-15.27l-1.738-2.609c-4.843-6.347-10.299-8.837-18.135-10.121-16.96-2.15-31.562.455-46.126 9.73zm-70-5c3.727 19.948 3.727 19.948 15.953 35.352 10.338 5.485 22.808 4.172 34.047 2.648 1.261-3.849.471-5.844-1.298-9.483l-1.077-2.08-1.104-2.152c-5.829-10.988-13.595-20.634-25.376-25.453-3.534-.935-6.617-1.098-10.27-1.082l-3.633-.016c-3.026.248-4.705.675-7.242 2.266zm-25 23c-5.076 9.941-4.265 23.368-1.164 33.902C303.411 282.738 310.97 296.147 326 303c6.147 2.494 11.688 3.553 18.313 3.5l2.503-.015c9.346-.265 17.781-3.153 24.653-9.688 5.03-5.903 7.547-11.119 8.531-18.797l-2.684.063c-44.392.912-44.392.912-61.066-14.188-7.847-8.574-12.55-19.006-16.25-29.875h-1zm-159 22c4.83 19.247 12.292 29.4 29 40 10.896 6.448 26.163 12.851 39 12l-1.645-2.746c-6.865-11.623-10.569-21.457-10.418-35.129l.014-2.375L196 262l-2.836.477c-17.756 2.501-36.645.738-53.164-6.477zm86.063 7.188c-2.495 6.605-2.569 12.153 0 18.746 3.423 7.544 8.186 11.153 15.711 14.184 3.697 1.011 7.171 1.267 10.977 1.258l2.126-.005c7.01-.164 13.178-1.587 18.39-6.511L275 289c-6.261-13.571-12.091-24.083-26-31-8.274-2.758-17.024-1.489-22.937 5.188zM409 274c-.328 2.308-.611 4.622-.875 6.938C406.171 296.3 400.405 308.222 389 319c-2.899 2.186-5.874 4.155-9 6 1.679 5.036 6.472 6.629 11 9 8.258 4.076 18.001 4.355 26.906 2.344 8.36-2.993 14.155-8.138 18.594-15.781 3.82-8.363 3.96-17.092 1.609-25.898-1.174-3.045-2.521-5.814-4.109-8.664l-1.539-2.855c-2.85-4.68-5.161-7.54-10.461-9.27-6.837-1.685-6.837-1.685-13 .125zm-127 57l-1.883 1.027C273.006 336.353 269.175 344.185 267 352c-1.031 9.449.091 17.454 5.613 25.289 3.419 4.169 6.443 6.434 11.387 8.711l.136-1.981C286.56 349.69 286.56 349.69 293 343c3.645-.994 6.083-1.229 9.75-.312 2.619 1.527 3.777 2.662 5.25 5.313 1.289 5.056.586 9.299-.437 14.313-1.683 8.966-1.873 17.594-1.562 26.688 9.664-2.489 15.806-7.505 21-16 4.065-7.194 3.995-15.575 2.531-23.555-2.531-8.709-7.754-14.413-15.285-19.219-9.778-5.34-22.747-5.198-32.246.773z" fill="#0cadec"/><path d="M325 211l1.875 8c1.411 6.359 2.889 12.285 6.125 18l1.082 1.949c2.987 4.765 6.602 7.263 11.918 9.051 9.215 1.913 18.734 1.256 28 0-.541-5.027-2.229-8.989-4.625-13.375l-1.088-2.004c-4.678-8.383-10.381-14.2-18.287-19.621 3-1 3-1 5.348-.066 5.966 3.305 11.261 6.912 16.461 11.332 2.005 1.587 3.865 2.696 6.191 3.734l2.266-1.898 2.984-2.477 2.953-2.461c2.252-1.743 4.204-3.04 6.797-4.164 5.241 7.707 10.087 16.798 12 26l3.191.078c16.975.59 31.054 3.445 43.121 16.297C460 269.648 460 269.648 460 275h2l.844-2.176c1.118-2.731 2.37-5.356 3.656-8.012 2.389-5.186 3.681-10.178 4.5-15.812l1.801-.148c4.669-.421 9.223-1.007 13.824-1.914 4.562-.876 8.738-1.112 13.375-.937 1.253 20.634-6.953 36.813-19.605 52.45C479 300 479 300 477.199 301.602c-5.161 4.604-6.351 8.199-7.199 14.96-2.533 15.441-9.04 27.807-21.875 37.188-16.693 11.01-36.076 15.123-55.78 11.123-11.171-2.576-20.627-7.016-29.505-14.357-1.973-1.677-1.973-1.677-4.84-3.516l.289 2.098c2.037 17.978-2.595 33.435-13.289 47.902-7.69 9.274-17.729 15.064-29 19 1.874 5.621 8.354 7.634 13.383 10.23 2.311.987 4.105 1.62 6.617 1.77 2.366-.971 4.162-2.133 6.176-3.703 4.293-3.052 9.767-2.85 14.824-2.297 7.116 1.801 12.683 4.999 17 11 3.925 7.035 5.378 13.699 3.34 21.539-2.62 7.509-6.719 12.122-13.34 16.398-6.924 2.512-16.746 2.536-23.5-.437-6.781-4.211-10.884-10.035-13.09-17.617C327 451 327 451 327 449l-2.148-.344c-14.61-3.362-26.11-14.335-33.852-26.656l-.961-2.262c-.891-1.903-.891-1.903-2.887-2.426l-2.215-.312c-5.051-.902-9.344-2.763-13.937-5 4.053-8.956 11.522-16.82 18.152-23.941 1.993-2.122 1.993-2.122 3.848-5.059h2v-2c1.645-1.656 1.645-1.656 3.813-3.5l2.145-1.844C303 374 303 374 306 372v17c10.04-4.512 16.693-8.558 21.438-18.687 2.923-8.189 2.662-17.27-.437-25.375-1.581-3.064-3.695-5.384-6-7.937v-2l-1.727-.84c-1.48-.755-2.936-1.558-4.359-2.414-7.152-4.089-13.766-4.617-21.914-4.746 6.112-6.551 13.568-11.399 20.88-16.512l5.206-3.738 2.477-1.687 2.004-1.402c3.328-.903 5.71-.051 9.005.791 12.387 2.798 24.455.861 35.276-5.545C374.447 294.18 378.32 285.729 380 278l-2.754.48c-19.785 2.795-40.689 1.565-57.246-10.48-10.004-7.941-17.607-20.649-20.48-33.078-.466-4.467.991-7.104 3.543-10.547 4.209-4.901 14.644-17.022 21.938-13.375zm84 63c-.328 2.308-.611 4.622-.875 6.938C406.171 296.3 400.405 308.222 389 319c-2.899 2.186-5.874 4.155-9 6 1.679 5.036 6.472 6.629 11 9 8.258 4.076 18.001 4.355 26.906 2.344 8.36-2.993 14.155-8.138 18.594-15.781 3.82-8.363 3.96-17.092 1.609-25.898-1.174-3.045-2.521-5.814-4.109-8.664l-1.539-2.855c-2.85-4.68-5.161-7.54-10.461-9.27-6.837-1.685-6.837-1.685-13 .125z" fill="#1d62da"/><path d="M301.129 26.84C324.964 26.216 348.917 34.319 367 50l-2 1 2 5c-2.754.961-5.434 1.89-8.301 2.445-3.138.645-6.139 1.545-9.199 2.492l-3.344 1.027c-3.105.952-3.105.952-5.75 2.227-4.74 1.593-8.322-.552-12.594-2.629-5.403-2.318-10.455-3.309-16.25-3.937l-2.331-.256c-3.994-.368-7.304-.331-11.232.631l-5.062.313C277.993 59.651 259.328 67.79 249 79c-2.145 5.94.256 12.092 2.75 17.617 4.085 7.787 9.019 12.936 17.25 16.383 6.522 1.696 11.059 1.464 16.984-1.699 3.393-2.19 6.034-4.977 8.766-7.926 7.651-8.134 7.651-8.134 13.625-8.687 5.301.457 8.37 1.922 11.938 5.875 3.129 4.52 3.271 8.031 2.688 13.438-2.786 10.362-13.229 18.244-22.031 23.461-11.791 6.113-24.86 9.388-37.953 5.289L261 142l-2.828-1c-7.041-2.689-12.57-5.979-18.172-11l-2.273-1.957C226.364 117.592 219.208 102.401 218 87c-.062-2.673-.047-5.326 0-8l-7.055-2.133c-1.868-.55-3.729-1.125-5.578-1.734-15.876-4.749-33.296-3.336-48.055 3.992C149.036 83.833 140.591 90.885 137 100c-1.848 8.372 1.625 15.026 6 22 6.836 10.338 15.734 20.367 27 26v4h-2v2l-2.937.75L162 156c-.969 2.032-.969 2.032-1 4h-2l-1 2c-7.17 6.038-7.17 6.038-10.891 5.867C133.102 163.961 121.123 144.108 114 132c-2.512-4.581-4.796-9.263-7-14-10.757.458-19.148 3.19-27.023 10.746C73.412 136.231 72.132 144.33 71 154l12 3v2l2.125.688c3.568 1.629 5.94 3.719 8.875 6.313-1.375 1.5-1.375 1.5-3 3h-2v2h-2v2c-1.539 1.516-1.539 1.516-3.625 3.25-3.649 3.097-7.034 6.325-10.375 9.75l-3-1c-7.038-1.972-12.473-1.497-19 2-9.891 6.234-17.816 14.866-20.578 26.418-1.954 11.961.439 22.371 7.203 32.395C43.809 253.775 51.712 258.388 61 262l-1 4 2 1-3.062 2.313C54.164 273.375 50.95 278.512 48 284v2c-3.498.9-5.451 1.215-8.859-.117C32.036 281.562 25.896 276.866 20 271l-2.117-2.012C4.68 255.503-.344 236.726-.381 218.383c.306-17.901 7.354-32.222 19.506-45.133C35.1 158 35.1 158 42 158l-.512-1.562c-2.567-12.815 2.323-26.665 8.629-37.645 9.85-14.611 24.616-25.909 41.789-30.301 6.005-.955 12.03-.713 18.094-.492l.746-2.637C116.358 70.31 130.692 59.858 144 52l2.219-1.312c20.503-11.12 45.86-10.728 67.719-4.312 5.315 1.595 10.341 3.399 15.203 6.121 2.812.762 4.311-.198 6.859-1.496a99.38 99.38 0 0 0 4.375-3.125c18.102-12.911 38.563-19.899 60.754-21.035z" fill="#07c1f1"/><path d="M485 291c-1.564 3.654-3.822 6.212-6.5 9.125l-2.406 2.633c-1.341 1.436-2.704 2.853-4.094 4.242-.531 1.892-.531 1.892-.824 4.078-2.914 17.463-8.216 31.83-23.051 42.672-16.693 11.01-36.076 15.123-55.78 11.123-11.171-2.576-20.627-7.016-29.505-14.357-1.973-1.677-1.973-1.677-4.84-3.516l.289 2.098c2.037 17.978-2.595 33.435-13.289 47.902-7.69 9.274-17.729 15.064-29 19 1.874 5.621 8.354 7.634 13.383 10.23 2.311.987 4.105 1.62 6.617 1.77 2.366-.971 4.162-2.133 6.176-3.703 4.293-3.052 9.767-2.85 14.824-2.297 7.116 1.801 12.683 4.999 17 11 3.925 7.035 5.378 13.699 3.34 21.539-2.62 7.509-6.719 12.122-13.34 16.398-6.924 2.512-16.746 2.536-23.5-.437-6.781-4.211-10.884-10.035-13.09-17.617C327 451 327 451 327 449l-2.148-.344c-14.61-3.362-26.11-14.335-33.852-26.656l-.961-2.262c-.891-1.903-.891-1.903-2.887-2.426l-2.215-.312c-5.051-.902-9.344-2.763-13.937-5 4.053-8.956 11.522-16.82 18.152-23.941 1.993-2.122 1.993-2.122 3.848-5.059h2v-2c1.645-1.656 1.645-1.656 3.813-3.5l2.145-1.844C303 374 303 374 306 372v17c10.015-4.501 16.729-8.522 21.375-18.687 1.553-4.114 1.703-7.562 1.688-11.937.227-3.668.376-5.679 2.699-8.559 2.942-2.222 6.027-4.025 9.238-5.816l4.84-2.871c8.226-4.845 16.571-9.46 25.098-13.754l1.913-.965A74.94 74.94 0 0 1 384 322l-2 3h-2c4.92 5.938 12.414 9.635 20 11 10.807.776 19.794.081 28.75-6.5 7.98-7.527 10.267-17.989 11.25-28.5 36.814-10 36.814-10 45-10z" fill="#2544d3"/><path d="M344 152l2 1c-1.857 7.057-5.993 12.99-10 19l1 2-2.437 1.438c-2.41 1.332-2.41 1.332-3.562 2.563l3.262.297c10.831 1.07 21.26 2.455 30.828 8.023 6.154 3.598 6.154 3.598 12.91 5.68 4.895-1.414 8.343-3.824 12.371-6.858 14.748-10.341 34.723-10.081 51.688-7.775C445 178 445 178 447 180c-1.875 1.063-1.875 1.063-4 2l-2-1 1 3c-3.75 2-3.75 2-6 2-2.5 1.875-4.79 3.79-7 6l-2.562 2.5C424 196.746 424 196.746 423 199h-2v2l-1 1 2 2c-3.402 2.971-7.068 4.155-11.312 5.438-5.32 1.676-9.962 3.596-14.687 6.563h-2l-1 2c-1.366.981-2.768 1.911-4.187 2.813-3.856 2.507-7.348 5.167-10.812 8.188-3.584-1.559-6.183-3.761-9.125-6.312C356.781 212.695 343.668 208.688 328 210c-10.543 1.767-18.712 7.486-25 16-7.694 11.541-7.339 26.395-5 39.563l1 4.438-7.375 5-2.117 1.445-2.031 1.367-1.873 1.27C284 280 284 280 282 280l-1 2c-4.471 4-4.471 4-8 4-8.672-18.802-8.696-43.288-1.75-62.562 2.349-5.862 5.287-11.166 8.75-16.437l-3.812.289c-27.461 1.862-27.461 1.862-35.187-3.289l7-2v-2h3v-2h3l1-2c1.587-1.098 3.22-2.132 4.875-3.125l2.68-1.633C265 190 265 190 268 190v-2l5.25-2.875 2.953-1.617L279 182l2.172-1.195C283 180 283 180 286 180l1-2a154.44 154.44 0 0 1 7.313-4.125l2.053-1.129 1.998-1.066 1.822-.977C302 170 302 170 306 170l1-2h3l1-2c2.29-.881 4.613-1.533 6.969-2.219 2.217-.591 2.217-.591 3.031-2.781h3c1.752-.716 3.479-1.496 5.188-2.312 3.444-1.615 6.862-3.138 10.438-4.437 3.172-.908 3.172-.908 4.375-2.25zm72 52l1 2 1-2h-2z" fill="#1199e7"/><path d="M298 270c3.192 2.665 4.475 5.891 6.188 9.625 4.678 9.689 10.286 16.098 19.906 21.184L326 302v2c-2.428 1.687-4.862 3.262-7.375 4.813-7.342 4.617-14.385 9.529-21.294 14.771-4.264 3.168-8.435 5.569-13.349 7.596-7.328 3.035-10.578 7.911-13.981 14.821-3.084 7.868-3.301 16.402-.375 24.375 3.069 6.67 7.008 11.016 13.375 14.625l.136-1.889c2.389-32.293 2.389-32.293 7.114-38.923 3.395-2.7 5.432-3.187 9.75-3.187 4.485 1.043 6.552 3.153 9 7 1.96 7.667.507 16.566-2 24-3.141 4.531-7.135 6.649-12 9v2h-2l-.715 1.688c-1.594 2.869-3.586 4.934-5.848 7.313-4.615 4.963-8.613 10.137-12.527 15.664C272 410 272 410 269 411c-13.9-7.588-24.013-21.037-28.638-36.075-3.326-12.781-2.822-25.466 1.638-37.925l-1.766.219c-6.766.766-13.43.886-20.234.781 1.85-3.94 4.076-6.783 7-10h2l1-3c1.938-2.687 1.938-2.687 4-5h2l1-2a181.01 181.01 0 0 1 4-4l2-2 3.313-2.812c2.181-1.857 4.221-3.721 6.25-5.75 5.199-5.199 9.221-8.034 16.168-10.445 2.386-1.043 3.693-1.928 5.27-3.992v-3c1.631-1.058 3.303-2.053 5-3l1.438-1.437c2.272-2.272 4.837-3.881 7.563-5.562h2l1-2c2.284-1.464 4.574-2.787 7-4z" fill="#177ce0"/><path d="M236.906 229.719c3.997 2.1 6.388 4.111 8.094 8.281 1.356 6.006 1.293 9.546-2 15-3.776 3.51-9.763 8-15 8-3.189 7.458-3.948 13.742-1.09 21.457 3.34 6.828 7.941 9.924 14.883 12.633 3.579 1.016 6.87 1.325 10.582 1.535l3.773.227L259 297l-1 3h-2l-.805 1.824c-1.239 2.256-2.334 3.385-4.32 4.988l-1.871 1.547L247 310c-4.472 3.764-8.356 7.411-12 12l-3 1-3 5h-2l-.687 1.625c-3.54 6.405-3.54 6.405-6.312 8.375-20.722 4.806-50.678-7.773-68.004-18.207-6.007-3.843-11.554-8.195-16.996-12.793 1.375-2.5 1.375-2.5 3-5h2l2-6h2l.75-1.687c2.365-4.375 5.249-7.424 9.25-10.312l2.754 2.16C170.92 297.053 188.557 307 207 307l-1.172-1.652c-8.529-12.351-12.838-25.244-10.328-40.359 2.435-10.807 6.857-20.75 15.5-27.988 7.328-4.587 17.143-10.586 25.906-7.281z" fill="#1198e7"/><path d="M213 195c7.328-1.026 12.356 1.899 18.633 5.242 3.726 1.945 7.395 3.407 11.367 4.758-.352 7.859-1.135 14.651-4 22l2.676.297c9.517 1.186 17.77 3.382 26.324 7.703l-.048 2.209c-.266 14.26-.252 27.867 3.048 41.791-2.736-2.624-4.995-5.289-7.187-8.375-4.959-6.473-11.895-11.53-20.051-13.039L238 257l1.277-1.25c3.521-3.711 5.613-6.573 5.895-11.766-.394-4.548-2.283-7.929-5.172-11.359-2.997-2.435-5.957-3.034-9.781-2.969-10.468 1.622-19.721 7.683-25.969 16.031-3.016 4.467-4.6 8.835-5.84 14.063-1.41 2.25-1.41 2.25-4.871 3.535-12.811 2.449-26.499 1.461-39.102-1.535l-2.61-.619c-4.881-1.284-8.976-2.725-12.827-6.131-1.023-2.848-1.023-2.848-1.375-6.062l-.383-3.484c-.557-7.938-.554-14.796 1.758-22.453 3.778 1.452 7.369 3.154 11 4.938 14.476 6.652 29.859 8.676 45.121 3.32 7.478-3.267 12.397-7.856 15.879-15.258 2.47-6.939 2.201-13.693 2-21zm112 16l1.875 8c1.411 6.359 2.889 12.285 6.125 18l1.082 1.949c2.987 4.765 6.602 7.263 11.918 9.051 9.215 1.913 18.734 1.256 28 0-.541-5.027-2.229-8.989-4.625-13.375l-1.088-2.004c-4.678-8.383-10.381-14.2-18.287-19.621 3-1 3-1 5.348-.066 5.966 3.305 11.261 6.912 16.461 11.332 2.005 1.587 3.865 2.696 6.191 3.734l2.266-1.898 2.984-2.477 2.953-2.461c2.252-1.743 4.204-3.04 6.797-4.164 5.061 7.442 11.753 17.696 11 27l-1.434-1.094c-4.498-3.156-7.911-4.667-13.453-4.332-3.395.684-5.54 2.166-8.113 4.426-4.528 7.108-1.977 17.448-.437 25.211.466 2.971.508 5.787.438 8.789-16.451 4.943-36.759 3.629-52.355-3.543-13.662-7.416-22.799-19.579-28.008-34.191-1.104-3.929-1.356-6.143-.637-10.266 3.575-6.152 16.531-22.235 25-18z" fill="#0e3bb4"/><path d="M444.789 253.02c6.41 5.742 11.722 12.047 15.211 19.98v2h2l.844-2.176c1.118-2.731 2.37-5.356 3.656-8.012 2.389-5.186 3.681-10.178 4.5-15.812l1.801-.148c4.669-.421 9.223-1.007 13.824-1.914 4.562-.876 8.738-1.112 13.375-.937.969 15.954-3.199 32.73-14 45-2.135.834-2.135.834-4.621 1.309l-2.808.568-3.009.561-6.23 1.258-3.189.642c-5.689 1.2-11.309 2.67-16.934 4.139-3.144.81-5.948 1.524-9.209 1.524v10h-1l-.043-2.422c-.368-8.464-2.094-15.051-5.957-22.578l-1.312-2.645c-2.537-4.461-4.609-6.77-9.562-8.355-4.338-.979-8.699-1.59-13.125-2l-.078-3.078c-.332-8.925-1.515-16.555-4.922-24.922 14.433-2.138 28.845-1.286 40.789 8.02z" fill="#1d62da"/><path d="M315.188 96.188c3.62 2.333 5.89 4.968 7.813 8.813.829 6.549-.14 11.634-4 17-9.955 11.709-23.32 20.89-38.945 22.375-6.573.105-12.863-.071-19.055-2.375l-2.828-1c-12.303-4.699-24.933-14.089-31.172-26l1-3c1.325-.365 2.66-.694 4-1l4-3h2l1-2h3l1-2c2.626-1.575 3.871-2 7-2l1-2 2-1 .961 1.539c4.531 6.685 9.926 11.131 17.848 13.191 6.53.915 10.676-.171 16.191-3.73 2.428-2.053 4.591-4.294 6.75-6.625 6.227-6.621 10.824-10.769 20.438-7.187z" fill="#0ab4ed"/><path d="M111.048 127.205c3.384 1.378 4.637 4.79 6.327 7.857l2.363 4.102 1.159 2.001c2.101 3.496 4.566 6.648 7.103 9.835l-1.977 1.285C116.598 158.61 110.62 165.141 107 176c-.095 2.311-.13 4.625-.125 6.938l-.008 3.715c.109 2.744.472 4.736 1.133 7.348.588 9.706 1.052 19.117-5.437 26.938-4.669 3.758-8.146 4.568-14.086 4.445-4.139-.64-5.708-2.268-8.477-5.383-2.47-4.598-2.365-9.217-2.5-14.312-.165-6.165-.532-11.804-2.5-17.687l-3-1c8.574-10.247 8.574-10.247 13-14h2v-2h2v-2h2c1.149-1.925 1.149-1.925 1-4-2.018-1.59-2.018-1.59-4.5-3.125l-2.531-1.633L83 159c1.235-11.437 11.737-20.654 20-28 5.282-4.072 5.282-4.072 8.048-3.795z" fill="#08bff0"/><path d="M196 72c6.866 1.306 13.554 3.295 20 6-1.128 3.383-1.964 3.977-4.687 6.125-7.917 6.754-12.708 15.137-13.641 25.531l-.363 7.695C197 121 197 121 195.993 124.289c-1.008 3.769-1.223 6.849-1.188 10.739l.02 3.896.051 4.014.027 4.096L195 157l-5.969-.734a102.14 102.14 0 0 0-4.285-.466c-6.542-3-11.147-16.485-13.738-22.754-5.669-17.14-4.176-34.238 3.43-50.484L177 78l.938-1.949C181.77 69.628 189.631 71.238 196 72z" fill="#0e3bb4"/><path d="M306.875 344.688c4.64 7.233 2.883 15.043 1.344 23.059-1.15 4.753-3.154 7.365-7.184 10.16-1.994 1.072-3.997 2.109-6.035 3.094v2h-2l-.715 1.688c-1.594 2.869-3.586 4.934-5.848 7.313-4.615 4.963-8.613 10.137-12.527 15.664C272 410 272 410 269 411c-11.8-6.442-22.609-18.163-27-31 .92-4.069 3.246-6.825 5.875-10l2.055-2.5L252 365l2.133-2.812L256 360h2l.773-1.766c1.344-2.448 2.845-4.052 4.852-5.984l1.914-1.859L267 349c1.11 3.329.966 5.571.813 9.063-.05 9.078 2.543 15.681 8.527 22.465 2.054 1.822 4.277 3.122 6.66 4.473l.136-1.889c2.404-32.493 2.404-32.493 7.302-38.923 5.29-4.516 11.224-4.373 16.438.5z" fill="#1d62da"/><path d="M300.75 58.438L304 61l2.285 1.883c8.93 7.702 15.912 16.307 21.902 26.43l1.246 2.03c1.815 3.205 2.694 5.029 1.949 8.697L330 103c-2.95 8.872-5.446 17.692-7.5 26.813-2.115 9.285-4.669 17.527-10.5 25.188l-.937-12.562-.322-3.58c-.51-8.673-.51-8.673 1.732-12.123 1.871-1.832 1.871-1.832 3.756-3.297 3.673-2.98 5.393-7.144 6.15-11.734.21-4.028-.231-6.396-2.004-10.078-3.594-3.972-6.555-5.43-11.875-6-3.787.406-6.233 1.463-9.5 3.375-5-5.75-5-5.75-5-8h-2l-5-5c-7.652-6.94-16.32-11.499-26-15v-2c29.452-15.945 29.452-15.945 39.75-10.562z" fill="#0e3bb4"/><path d="M392 147l2 1-2.437 2.5c-2.968 3.613-4.008 6.826-3.562 11.5 1.28 4.183 2.976 7.165 6.375 9.938 2.88 1.166 5.544 1.704 8.625 2.063-1.37 2.74-3.181 2.953-5.964 3.904l-2.036.659-2.071.677c-4.978 1.573-9.691 2.619-14.929 2.761l-2.016.117c-10.459.349-20.774-1.504-30.734-4.555l-2.059-.622c-3.405-1.104-5.952-2.075-8.191-4.941l1.574-2.457c4.398-6.983 8.241-13.903 11.426-21.543l1.879.367L359 150l3.684.648c11.07 1.745 19.176.882 29.316-3.648z" fill="#0e3bb5"/><path d="M482 201c9.827 9.139 16.417 24.722 18 38v7l-11.687 2.063-3.342.604-3.232.557-2.968.524c-2.84.26-5.021-.042-7.771-.746l-.664-3.113c-2.701-12.046-6.945-21.362-14.82-31.012C454 213 454 213 452 210a101.17 101.17 0 0 1 6-2l2 1 1-2c2.109-.379 2.109-.379 4.75-.562 3.495-.283 6.823-.676 10.25-1.437l6-1v-3z" fill="#177ce0"/><path d="M239 223v4l2.676.297c9.517 1.186 17.77 3.382 26.324 7.703l-.048 2.209c-.266 14.26-.252 27.867 3.048 41.791-2.736-2.624-4.995-5.289-7.187-8.375-4.959-6.473-11.895-11.53-20.051-13.039L238 257l1.277-1.25c3.521-3.711 5.613-6.573 5.895-11.766-.394-4.548-2.283-7.929-5.172-11.359-2.997-2.435-5.957-3.034-9.781-2.969-10.468 1.622-19.721 7.683-25.969 16.031-2.994 4.488-4.833 9.021-6.426 14.16C197 262 197 262 195 263c-2.333.04-4.667.043-7 0 3.452-13.957 10.555-26.498 22.875-34.437 7.385-4.059 19.749-8.703 28.125-5.562z" fill="#092d8a"/><path d="M303 221l2 2-1.75 2.188c-7.775 11.94-7.657 26.824-5.25 40.375l1 4.438-7.375 5-2.117 1.445-2.031 1.367-1.873 1.27C284 280 284 280 282 280l-1 2c-4.471 4-4.471 4-8 4-4.518-9.669-8.405-24.414-6-35 2.774-5.04 5.797-8.547 11-11 1.176-.921 2.322-1.881 3.438-2.875 2.032-1.79 4.056-3.513 6.188-5.187 2.513-1.969 2.513-1.969 5-4.687C295 225 295 225 298 225c2.674-1.939 2.674-1.939 5-4zm-8 6l1 2 1-2h-2z" fill="#1291e5"/><path d="M111.048 127.205c3.384 1.378 4.637 4.79 6.327 7.857l2.363 4.102 1.159 2.001c2.101 3.496 4.566 6.648 7.103 9.835l-1.977 1.285C117.469 158.026 112.139 163.561 108 173l-1.187 2.625c-.947 2.767-1.409 5.483-1.812 8.375-1.72-2.58-2.912-4.946-4.187-7.75C96.752 168.093 90.828 163.412 83 159c1.235-11.437 11.737-20.654 20-28 5.282-4.072 5.282-4.072 8.048-3.795z" fill="#0e3bb4"/><path d="M350 212c8.705 1.443 15.124 6.66 21.738 12.23A28.48 28.48 0 0 0 378 228l2.266-1.898 2.984-2.477 2.953-2.461c2.252-1.743 4.204-3.04 6.797-4.164 5.061 7.442 11.753 17.696 11 27l-1.434-1.094c-4.498-3.156-7.911-4.667-13.453-4.332-3.395.684-5.54 2.166-8.113 4.426-4.528 7.108-1.977 17.448-.437 25.211.466 2.971.508 5.787.438 8.789-4.961 1.323-9.911 1.089-15 1l.875-2.527c3.852-11.511 3.852-11.511 1.625-23.035L367 250l7-2c-.541-5.027-2.229-8.989-4.625-13.375l-1.088-2.004c-4.349-7.793-9.451-13.387-16.783-18.492L350 213v-1z" fill="#0e3db6"/><path d="M396 238c3.375 1.938 3.375 1.938 6 4 3.326 1.109 6.531 1.542 10 2v1l-7 1 .875 2.09c2.491 6.306 3.569 11.14 3.125 17.91-23.234 10-23.234 10-28 10-4.99-25.071-4.99-25.071-1.641-31.684 4.251-6.001 9.638-7.609 16.641-6.316z" fill="#187be0"/><path d="M445.145 253.219c1.898 1.822 2.855 3.367 3.855 5.781l-3-1c-4.935-.518-8.878-.51-13.437 1.563-3.134 2.981-4.302 5.306-5.562 9.438v7l-18-3-.25-7.25c-.362-7.407-1.942-13.853-4.75-20.75 14.877-2.204 28.697-.955 41.145 8.219z" fill="#0e3bb5"/><path d="M188.188 71.625c9.749.121 18.822 2.602 27.813 6.375-1.128 3.383-1.964 3.977-4.687 6.125C206.375 88.29 202.883 93.234 200 99c-3.173-1.006-6.188-2.086-9.219-3.469-3.824-1.655-7.631-2.485-11.719-3.219l-2.072-.393L172 91c.513-4.751 1.802-7.782 4.438-11.75l1.871-2.859c3.11-4.395 4.552-4.705 9.879-4.766zm112.687-13.062c8.091 6.311 8.091 6.311 11.125 9.438v2l-2.273.48c-7.961 1.815-16.186 3.884-22.039 9.895L286 82c-3.879-.373-6.46-1.705-9.687-3.812-4.901-3.058-9.891-5.227-15.312-7.187v-2c29.597-16.023 29.597-16.023 39.875-10.437z" fill="#092d8a"/><path d="M325 211c.633 2.109.633 2.109 1.125 4.75l.508 2.609c.691 4.972.691 4.972.367 7.641-1.574 1.52-1.574 1.52-3.687 2.813-8.849 6.196-10.788 15.145-13.312 25.188h-2l-3.437-6.812-.986-1.947c-2.694-5.36-4.852-10.169-3.576-16.24 3.516-6.177 16.572-22.214 25-18z" fill="#092d8b"/><path d="M250 229l4.5.75 2.531.422c3.938 1.099 7.373 2.909 10.969 4.828l-.048 2.209c-.266 14.26-.252 27.867 3.048 41.791-2.736-2.624-4.995-5.289-7.187-8.375-4.028-5.283-8.906-8.672-14.812-11.625l.875-2.375c2.663-8.581 3.507-14.865 1.125-23.625l-1-4z" fill="#0e3bb5"/><path d="M139 223c4.498 1.687 8.729 3.817 13 6l-.141 3.332c-.264 9.024.108 16.382 4.141 24.668l1.008 2.23c.872 1.943.872 1.943 2.992 2.77-7.053-.532-15.831-1.831-21-7-2.551-10.691-3.186-21.446 0-32z" fill="#092d8a"/><path d="M395 233c3.853 1.998 6.886 4.145 9 8l-1 3-2.375-1.937c-3.957-3.109-6.377-3.403-11.301-3.348-3.575.439-5.657 1.944-8.324 4.285-4.528 7.108-1.977 17.448-.437 25.211.466 2.971.508 5.787.438 8.789-4.961 1.323-9.911 1.089-15 1l.875-2.527c3.852-11.511 3.852-11.511 1.625-23.035L367 250l9-1 .75-4.187c.93-4.166 2.125-6.78 5.25-9.812 4.249-2.526 8.167-2.688 13-2z" fill="#092c8a"/><path d="M358 437c2.642 2.193 4.467 3.933 6 7 .135 4.896-.307 8.147-3.437 12-3.326 2.596-4.743 3.194-8.875 2.875-3.437-.448-4.73-.904-7.687-2.937-2.509-3.685-3.287-6.5-3-10.937 1.258-3.923 2.347-5.53 5.688-7.937 4.115-1.32 7.208-1.473 11.313-.062z" fill="#001536"/><path d="M197 114c.152 3.725.084 6.72-.996 10.307-1.024 3.766-1.234 6.83-1.2 10.72l.02 3.896.051 4.014.027 4.096L195 157l-5.97-.736a76.44 76.44 0 0 0-4.265-.428c-3.048-1.443-4.378-4.396-6.016-7.211l-1.102-1.789c-1.69-2.821-2.648-4.492-2.648-7.836l9 3 .418-2.133C189.669 114 189.669 114 197 114zm124.813-17.625c3.701 4.441 5.523 7.144 5.426 13.076-.521 5.569-2.045 10.955-3.426 16.361l-.885 3.658c-2.299 9.14-4.993 18.057-10.928 25.53l-.937-12.562-.322-3.58c-.51-8.673-.51-8.673 1.732-12.123 1.871-1.832 1.871-1.832 3.756-3.297 3.673-2.98 5.393-7.144 6.15-11.734.21-4.028-.231-6.396-2.004-10.078-3.594-3.972-6.555-5.43-11.875-6-3.787.406-6.233 1.463-9.5 3.375.188-1.812.188-1.812 1-4 7.486-5.775 14.95-4.42 21.813 1.375z" fill="#092c89"/><path d="M90 147c4.096 2.289 7.534 4.857 11 8v2h2c1.762 1.828 1.762 1.828 3.688 4.25l1.949 2.391C110 166 110 166 109.801 168.055L109 170l-.719 1.93-.781 1.945c-1.287 3.352-2.053 6.548-2.5 10.125-1.72-2.58-2.912-4.946-4.187-7.75C96.752 168.093 90.828 163.412 83 159c.374-5.364 1.996-7.496 6-11l1-1z" fill="#092d8a"/><path d="M394 148l-2.437 2.5c-2.968 3.613-4.008 6.826-3.562 11.5 1.28 4.183 2.976 7.165 6.375 9.938 2.88 1.166 5.544 1.704 8.625 2.063-1.444 2.887-3.257 3.045-6.25 4.125l-2.891 1.07c-3.643 1.025-6.372 1.633-9.773-.262-4.647-4.064-7.645-7.802-8.328-14.203-.13-4.349.009-7.891 2.242-11.73 2.385-1.374 4.467-2.394 7-3.375l1.945-.824c4.767-1.945 4.767-1.945 7.055-.801z" fill="#092e8b"/><path d="M109 127c1.928.244 1.928.244 4 1a78.9 78.9 0 0 1 4.375 7.063l2.363 4.102 1.159 2.001c2.101 3.496 4.566 6.648 7.103 9.835l-3.75 2.563-2.109 1.441c-2.141.996-2.141.996-4.281.711C116 155 116 155 114 154v-2l-3-1c-1.789-2.512-1.789-2.512-3.625-5.687l-1.852-3.137c-1.534-3.198-2.345-5.637-2.523-9.176 2.375-2.812 2.375-2.812 5-5l1-1z" fill="#092d8a"/><path d="M213 195c7.328-1.026 12.356 1.899 18.633 5.242 3.726 1.945 7.395 3.407 11.367 4.758.372 6.574.372 6.574-1.512 8.73L240 215c-11.899-4.698-11.899-4.698-15.25-7.375-3.962-2.341-6.318-1.542-10.75-.625l-1-12z" fill="#092d8b"/><path d="M348 148l7 1c.955 9.736-3.091 19.34-9 27-8.17-.67-8.17-.67-11-4l1.574-2.457c4.398-6.983 8.241-13.903 11.426-21.543z" fill="#092d8a"/><path d="M108 197c2.557 2.486 4.451 4.748 6 8-.469 3.346-1.437 6.468-2.437 9.688-2.224 7.938-2.798 16.132-3.562 24.313-4.091-2.219-7.072-4.86-10.312-8.187l-2.676-2.73L93 226c3-2 3-2 5.938-3.187 3.784-2.239 5.4-4.851 7.063-8.812.693-2.965 1.001-5.906 1.25-8.937l.234-2.361L108 197z" fill="#092e8d"/><path d="M264 234l4 1-.048 2.209c-.266 14.26-.252 27.867 3.048 41.791-10.59-10.383-10.59-10.383-10.98-17.734L260 259l-.113-2.891c-.193-8.073.854-14.66 4.113-22.109z" fill="#092d8b"/><path d="M444.008 252.34L449 257l-1 2-2-1c-4.922-.54-8.894-.503-13.437 1.563-4.182 3.978-5.478 7.656-5.75 13.375L427 276c-5.75-1.875-5.75-1.875-8-3 .239-7.531 2.066-12.256 7-18 4.897-3.731 12.413-6.393 18.008-2.66z" fill="#092e8c"/><path d="M350 212c8.705 1.443 15.124 6.66 21.738 12.23A28.48 28.48 0 0 0 378 228l2.266-1.898 2.984-2.477 2.953-2.461c2.252-1.743 4.204-3.04 6.797-4.164 2 2 2 2 2 5-1.941 1.324-1.941 1.324-4.562 2.688-5.282 2.983-8.772 6.53-12.437 11.313l-1.32-1.207c-2.824-2.512-5.219-4.582-8.68-6.168-3.632-1.967-5.521-4.402-8.121-7.555-2.505-2.76-5.326-4.818-8.375-6.941L350 213v-1z" fill="#092e8d"/><path d="M322 124c2.593 6.779-1.81 16.293-4.605 22.652-1.41 2.817-2.858 5.597-4.395 8.348h-1l-1-23 2 3 3.938-4.375 2.215-2.461c1.878-2.023 1.878-2.023 2.848-4.164z" fill="#092c8a"/><path d="M106 209h1c-.434 5.428-1.473 8.806-5 13-3.277 2.006-5.152 3-9 3l-1-3c1.29-1.376 2.627-2.708 4-4h2l1-2 3-1v-2h2l2-4z" fill="#0cafec"/><path d="M322 124c1.117 3.352 1.146 5.644 0 9-2.25 2.5-2.25 2.5-5 5l-2.812 2.813L312 143l-1-11 2 3 3.938-4.375 2.215-2.461c1.878-2.023 1.878-2.023 2.848-4.164z" fill="#0e3cb4"/><path d="M105 178h1c1.534 10.421 2.273 20.461 2 31h-1l-.078-2.887-.172-3.801-.141-3.762c-.681-3.967-1.863-5.678-4.609-8.551l3-1v-11z" fill="#1090e1"/><path d="M267 61l8 1c-1.976 1.976-3.523 2.896-6 4.125l-2.125 1.07C265 68 265 68 263 68c.313-1.937.313-1.937 1-4l3-1v-2z" fill="#0bb3ed"/><path d="M196 306l4 1c-.687 2.375-.687 2.375-2 5-2.625 1.313-2.625 1.313-5 2 0-3.539.86-4.325 3-7v-1z" fill="#138ce4"/><path d="M202 114h2v2c-5.595 5-5.595 5-7 5v-5h3l2-2z" fill="#0f98e4"/></svg>
