<svg xmlns="http://www.w3.org/2000/svg" viewBox="0 0 1440 900" preserveAspectRatio="xMidYMax slice" width="1440" height="900">
  <defs>
    <radialGradient id="horizonGlow" cx="50%" cy="100%" r="60%">
      <stop offset="0%" stop-color="#0d1535" stop-opacity="1"/>
      <stop offset="100%" stop-color="#050810" stop-opacity="0"/>
    </radialGradient>
    <radialGradient id="windowGlow1" cx="50%" cy="50%" r="50%">
      <stop offset="0%" stop-color="#1e2a50" stop-opacity="1"/>
      <stop offset="100%" stop-color="#111827" stop-opacity="0"/>
    </radialGradient>
  </defs>

  <!-- Base sky -->
  <rect width="1440" height="900" fill="#050810"/>

  <!-- Horizon glow -->
  <rect width="1440" height="900" fill="url(#horizonGlow)"/>

  <!-- Far background buildings (shorter, more transparent) -->
  <rect x="0"    y="720" width="60"  height="180" fill="#080c1a" stroke="#12192e" stroke-width="1"/>
  <rect x="58"   y="740" width="45"  height="160" fill="#080c1a" stroke="#12192e" stroke-width="1"/>
  <rect x="100"  y="700" width="80"  height="200" fill="#08101e" stroke="#12192e" stroke-width="1"/>
  <rect x="178"  y="730" width="35"  height="170" fill="#060a14" stroke="#12192e" stroke-width="1"/>
  <rect x="211"  y="710" width="55"  height="190" fill="#080c1a" stroke="#12192e" stroke-width="1"/>
  <rect x="264"  y="750" width="40"  height="150" fill="#060a14" stroke="#12192e" stroke-width="1"/>
  <rect x="302"  y="690" width="70"  height="210" fill="#08101e" stroke="#12192e" stroke-width="1"/>
  <rect x="370"  y="720" width="50"  height="180" fill="#080c1a" stroke="#12192e" stroke-width="1"/>
  <rect x="418"  y="740" width="38"  height="160" fill="#060a14" stroke="#12192e" stroke-width="1"/>
  <rect x="454"  y="700" width="90"  height="200" fill="#08101e" stroke="#12192e" stroke-width="1"/>
  <rect x="542"  y="730" width="42"  height="170" fill="#080c1a" stroke="#12192e" stroke-width="1"/>
  <rect x="582"  y="715" width="65"  height="185" fill="#060a14" stroke="#12192e" stroke-width="1"/>
  <rect x="645"  y="745" width="35"  height="155" fill="#080c1a" stroke="#12192e" stroke-width="1"/>
  <rect x="678"  y="695" width="75"  height="205" fill="#08101e" stroke="#12192e" stroke-width="1"/>
  <rect x="751"  y="725" width="48"  height="175" fill="#060a14" stroke="#12192e" stroke-width="1"/>
  <rect x="797"  y="710" width="60"  height="190" fill="#080c1a" stroke="#12192e" stroke-width="1"/>
  <rect x="855"  y="750" width="40"  height="150" fill="#060a14" stroke="#12192e" stroke-width="1"/>
  <rect x="893"  y="705" width="85"  height="195" fill="#08101e" stroke="#12192e" stroke-width="1"/>
  <rect x="976"  y="730" width="50"  height="170" fill="#080c1a" stroke="#12192e" stroke-width="1"/>
  <rect x="1024" y="715" width="44"  height="185" fill="#060a14" stroke="#12192e" stroke-width="1"/>
  <rect x="1066" y="695" width="70"  height="205" fill="#08101e" stroke="#12192e" stroke-width="1"/>
  <rect x="1134" y="740" width="38"  height="160" fill="#080c1a" stroke="#12192e" stroke-width="1"/>
  <rect x="1170" y="720" width="55"  height="180" fill="#060a14" stroke="#12192e" stroke-width="1"/>
  <rect x="1223" y="700" width="80"  height="200" fill="#08101e" stroke="#12192e" stroke-width="1"/>
  <rect x="1301" y="735" width="42"  height="165" fill="#080c1a" stroke="#12192e" stroke-width="1"/>
  <rect x="1341" y="710" width="60"  height="190" fill="#060a14" stroke="#12192e" stroke-width="1"/>
  <rect x="1399" y="725" width="41"  height="175" fill="#08101e" stroke="#12192e" stroke-width="1"/>

  <!-- Foreground buildings (taller, darker, more defined) -->
  <rect x="0"    y="650" width="90"  height="250" fill="#0a0c1a" stroke="#1a1f35" stroke-width="1"/>
  <rect x="88"   y="680" width="55"  height="220" fill="#080a16" stroke="#1a1f35" stroke-width="1"/>
  <rect x="141"  y="620" width="110" height="280" fill="#0c0e20" stroke="#1a1f35" stroke-width="1"/>
  <rect x="249"  y="660" width="70"  height="240" fill="#0a0c1a" stroke="#1a1f35" stroke-width="1"/>
  <rect x="317"  y="600" width="130" height="300" fill="#0c0e20" stroke="#1a1f35" stroke-width="1"/>
  <rect x="445"  y="645" width="80"  height="255" fill="#0a0c1a" stroke="#1a1f35" stroke-width="1"/>
  <rect x="523"  y="615" width="100" height="285" fill="#0c0e20" stroke="#1a1f35" stroke-width="1"/>
  <rect x="621"  y="655" width="65"  height="245" fill="#080a16" stroke="#1a1f35" stroke-width="1"/>
  <rect x="684"  y="590" width="140" height="310" fill="#0c0e20" stroke="#1a1f35" stroke-width="1"/>
  <rect x="822"  y="635" width="88"  height="265" fill="#0a0c1a" stroke="#1a1f35" stroke-width="1"/>
  <rect x="908"  y="605" width="115" height="295" fill="#0c0e20" stroke="#1a1f35" stroke-width="1"/>
  <rect x="1021" y="650" width="72"  height="250" fill="#080a16" stroke="#1a1f35" stroke-width="1"/>
  <rect x="1091" y="620" width="105" height="280" fill="#0c0e20" stroke="#1a1f35" stroke-width="1"/>
  <rect x="1194" y="640" width="82"  height="260" fill="#0a0c1a" stroke="#1a1f35" stroke-width="1"/>
  <rect x="1274" y="610" width="120" height="290" fill="#0c0e20" stroke="#1a1f35" stroke-width="1"/>
  <rect x="1392" y="655" width="48"  height="245" fill="#080a16" stroke="#1a1f35" stroke-width="1"/>

  <!-- Windows — building 1 (x=0) -->
  <rect x="10"  y="665" width="4" height="6" fill="#1e2640"/>
  <rect x="18"  y="665" width="4" height="6" fill="#1a2038"/>
  <rect x="26"  y="665" width="4" height="6" fill="#1e2640"/>
  <rect x="10"  y="680" width="4" height="6" fill="#1a2038"/>
  <rect x="18"  y="680" width="4" height="6" fill="#1e2640"/>
  <rect x="26"  y="680" width="4" height="6" fill="#1a2038"/>
  <rect x="10"  y="695" width="4" height="6" fill="#1e2640"/>
  <rect x="18"  y="695" width="4" height="6" fill="#1a2038"/>

  <!-- Windows — building 3 (x=141) -->
  <rect x="152" y="635" width="4" height="6" fill="#1e2640"/>
  <rect x="160" y="635" width="4" height="6" fill="#1a2038"/>
  <rect x="168" y="635" width="4" height="6" fill="#1e2640"/>
  <rect x="176" y="635" width="4" height="6" fill="#1a2038"/>
  <rect x="152" y="650" width="4" height="6" fill="#1a2038"/>
  <rect x="160" y="650" width="4" height="6" fill="#1e2640"/>
  <rect x="168" y="650" width="4" height="6" fill="#1a2038"/>
  <rect x="176" y="650" width="4" height="6" fill="#1e2640"/>
  <rect x="152" y="665" width="4" height="6" fill="#1e2640"/>
  <rect x="160" y="665" width="4" height="6" fill="#1a2038"/>
  <rect x="168" y="665" width="4" height="6" fill="#1e2640"/>

  <!-- Windows — building 5 (x=317) -->
  <rect x="328" y="615" width="4" height="6" fill="#1e2640"/>
  <rect x="336" y="615" width="4" height="6" fill="#1a2038"/>
  <rect x="344" y="615" width="4" height="6" fill="#1e2640"/>
  <rect x="352" y="615" width="4" height="6" fill="#1a2038"/>
  <rect x="360" y="615" width="4" height="6" fill="#1e2640"/>
  <rect x="328" y="630" width="4" height="6" fill="#1a2038"/>
  <rect x="336" y="630" width="4" height="6" fill="#1e2640"/>
  <rect x="344" y="630" width="4" height="6" fill="#1a2038"/>
  <rect x="352" y="630" width="4" height="6" fill="#1e2640"/>
  <rect x="328" y="645" width="4" height="6" fill="#1e2640"/>
  <rect x="336" y="645" width="4" height="6" fill="#1a2038"/>
  <rect x="344" y="645" width="4" height="6" fill="#1e2640"/>
  <rect x="360" y="645" width="4" height="6" fill="#1a2038"/>

  <!-- Windows — tallest building (x=684) -->
  <rect x="696" y="600" width="4" height="6" fill="#1e2640"/>
  <rect x="704" y="600" width="4" height="6" fill="#1a2038"/>
  <rect x="712" y="600" width="4" height="6" fill="#1e2640"/>
  <rect x="720" y="600" width="4" height="6" fill="#1a2038"/>
  <rect x="728" y="600" width="4" height="6" fill="#1e2640"/>
  <rect x="736" y="600" width="4" height="6" fill="#1a2038"/>
  <rect x="696" y="615" width="4" height="6" fill="#1a2038"/>
  <rect x="704" y="615" width="4" height="6" fill="#1e2640"/>
  <rect x="712" y="615" width="4" height="6" fill="#1a2038"/>
  <rect x="720" y="615" width="4" height="6" fill="#1e2640"/>
  <rect x="728" y="615" width="4" height="6" fill="#1a2038"/>
  <rect x="696" y="630" width="4" height="6" fill="#1e2640"/>
  <rect x="704" y="630" width="4" height="6" fill="#1a2038"/>
  <rect x="712" y="630" width="4" height="6" fill="#1e2640"/>
  <rect x="720" y="630" width="4" height="6" fill="#1a2038"/>
  <rect x="736" y="630" width="4" height="6" fill="#1e2640"/>
  <rect x="696" y="645" width="4" height="6" fill="#1a2038"/>
  <rect x="704" y="645" width="4" height="6" fill="#1e2640"/>
  <rect x="712" y="645" width="4" height="6" fill="#1a2038"/>
  <rect x="728" y="645" width="4" height="6" fill="#1e2640"/>

  <!-- Windows — building 9 (x=908) -->
  <rect x="920" y="618" width="4" height="6" fill="#1e2640"/>
  <rect x="928" y="618" width="4" height="6" fill="#1a2038"/>
  <rect x="936" y="618" width="4" height="6" fill="#1e2640"/>
  <rect x="944" y="618" width="4" height="6" fill="#1a2038"/>
  <rect x="952" y="618" width="4" height="6" fill="#1e2640"/>
  <rect x="920" y="633" width="4" height="6" fill="#1a2038"/>
  <rect x="928" y="633" width="4" height="6" fill="#1e2640"/>
  <rect x="936" y="633" width="4" height="6" fill="#1a2038"/>
  <rect x="944" y="633" width="4" height="6" fill="#1e2640"/>
  <rect x="920" y="648" width="4" height="6" fill="#1e2640"/>
  <rect x="936" y="648" width="4" height="6" fill="#1a2038"/>
  <rect x="952" y="648" width="4" height="6" fill="#1e2640"/>

  <!-- Windows — building 11 (x=1091) -->
  <rect x="1102" y="630" width="4" height="6" fill="#1e2640"/>
  <rect x="1110" y="630" width="4" height="6" fill="#1a2038"/>
  <rect x="1118" y="630" width="4" height="6" fill="#1e2640"/>
  <rect x="1126" y="630" width="4" height="6" fill="#1a2038"/>
  <rect x="1134" y="630" width="4" height="6" fill="#1e2640"/>
  <rect x="1102" y="645" width="4" height="6" fill="#1a2038"/>
  <rect x="1110" y="645" width="4" height="6" fill="#1e2640"/>
  <rect x="1118" y="645" width="4" height="6" fill="#1a2038"/>
  <rect x="1126" y="645" width="4" height="6" fill="#1e2640"/>
  <rect x="1102" y="660" width="4" height="6" fill="#1e2640"/>
  <rect x="1118" y="660" width="4" height="6" fill="#1a2038"/>
  <rect x="1134" y="660" width="4" height="6" fill="#1e2640"/>

  <!-- Windows — building 13 (x=1274) -->
  <rect x="1285" y="622" width="4" height="6" fill="#1e2640"/>
  <rect x="1293" y="622" width="4" height="6" fill="#1a2038"/>
  <rect x="1301" y="622" width="4" height="6" fill="#1e2640"/>
  <rect x="1309" y="622" width="4" height="6" fill="#1a2038"/>
  <rect x="1317" y="622" width="4" height="6" fill="#1e2640"/>
  <rect x="1285" y="637" width="4" height="6" fill="#1a2038"/>
  <rect x="1293" y="637" width="4" height="6" fill="#1e2640"/>
  <rect x="1301" y="637" width="4" height="6" fill="#1a2038"/>
  <rect x="1317" y="637" width="4" height="6" fill="#1e2640"/>
  <rect x="1285" y="652" width="4" height="6" fill="#1e2640"/>
  <rect x="1301" y="652" width="4" height="6" fill="#1a2038"/>
  <rect x="1309" y="652" width="4" height="6" fill="#1e2640"/>

  <!-- Billboard placeholders -->
  <rect x="330"  y="570" width="90" height="40" fill="#111827" stroke="#1e2a4a" stroke-width="1"/>
  <line x1="340" y1="578" x2="410" y2="578" stroke="#1e2a4a" stroke-width="0.5"/>
  <line x1="340" y1="586" x2="390" y2="586" stroke="#1e2a4a" stroke-width="0.5"/>
  <line x1="340" y1="594" x2="400" y2="594" stroke="#1e2a4a" stroke-width="0.5"/>

  <rect x="695"  y="548" width="80" height="36" fill="#111827" stroke="#1e2a4a" stroke-width="1"/>
  <line x1="704" y1="556" x2="766" y2="556" stroke="#1e2a4a" stroke-width="0.5"/>
  <line x1="704" y1="564" x2="750" y2="564" stroke="#1e2a4a" stroke-width="0.5"/>
  <line x1="704" y1="572" x2="760" y2="572" stroke="#1e2a4a" stroke-width="0.5"/>

  <rect x="920"  y="558" width="85" height="38" fill="#111827" stroke="#1e2a4a" stroke-width="1"/>
  <line x1="930" y1="566" x2="996" y2="566" stroke="#1e2a4a" stroke-width="0.5"/>
  <line x1="930" y1="574" x2="980" y2="574" stroke="#1e2a4a" stroke-width="0.5"/>
  <line x1="930" y1="582" x2="990" y2="582" stroke="#1e2a4a" stroke-width="0.5"/>

  <!-- Ground / street level -->
  <rect x="0" y="895" width="1440" height="5" fill="#0a0c1a"/>
</svg>
