<svg width="64" height="64" viewBox="0 0 64 64" fill="none" xmlns="http://www.w3.org/2000/svg">
  <defs>
    <linearGradient id="brainGrad" x1="8" y1="8" x2="56" y2="56" gradientUnits="userSpaceOnUse">
      <stop stop-color="#22D3EE"/>
      <stop offset="1" stop-color="#335CFF"/>
    </linearGradient>
  </defs>
  <path d="M24 13c-6 0-11 4-12 10-5 1-9 5-9 11 0 6 4 11 10 12 2 5 7 8 13 8h11c2 0 4-2 4-4 0-3-2-5-5-5h-8c-4 0-8-3-8-7 0-5 4-8 9-8h7c5 0 9-4 9-9 0-5-4-8-9-8h-1c-2-3-6-5-10-5z" stroke="url(#brainGrad)" stroke-width="5" stroke-linecap="round" stroke-linejoin="round"/>
  <path d="M40 13c6 0 11 4 12 10 5 1 9 5 9 11 0 6-4 11-10 12-2 5-7 8-13 8h-1" stroke="url(#brainGrad)" stroke-width="5" stroke-linecap="round" stroke-linejoin="round"/>
  <path d="M24 21c3 1 5 3 5 6m6-6c-3 1-5 3-5 6m12-1c-2 1-3 2-3 4m-14 8c2 2 5 3 8 3m0-14v14" stroke="url(#brainGrad)" stroke-width="4" stroke-linecap="round"/>
  <circle cx="35" cy="57" r="3" fill="#001A55"/>
</svg>
