<svg width="1536" height="1536" viewBox="0 0 1536 1536" fill="none" xmlns="http://www.w3.org/2000/svg">
  <rect width="1536" height="1536" fill="#160414"/>
  <defs>
    <linearGradient id="brainGrad" x1="240" y1="220" x2="1280" y2="1320" gradientUnits="userSpaceOnUse">
      <stop stop-color="#22D3EE"/>
      <stop offset="1" stop-color="#335CFF"/>
    </linearGradient>
  </defs>
  <g stroke="url(#brainGrad)" stroke-width="120" stroke-linecap="round" stroke-linejoin="round" fill="none">
    <path d="M580 380c-140 0-250 95-275 220-120 35-200 135-200 265 0 160 120 285 280 295 55 120 170 200 305 200h240c60 0 110-50 110-110 0-100-75-170-180-170H650c-135 0-240-105-240-230 0-150 120-250 270-250h200c140 0 250-110 250-250S1020 300 880 300h-25c-55-85-155-140-275-140z"/>
    <path d="M980 380c140 0 250 95 275 220 120 35 200 135 200 265 0 160-120 285-280 295-55 120-170 200-305 200h-20"/>
    <path d="M560 570c80 25 140 90 140 180m190-180c-80 25-140 90-140 180m350-35c-55 20-90 60-90 120m-430 250c65 55 150 85 240 85m0-420v420"/>
  </g>
  <circle cx="1035" cy="1310" r="34" fill="#001A55"/>
</svg>
